<svg width="160" height="39" viewBox="0 0 160 39" fill="none" xmlns="http://www.w3.org/2000/svg">
<mask id="path-1-outside-1_1_36" maskUnits="userSpaceOnUse" x="0" y="0" width="40" height="39" fill="black">
<rect fill="white" width="40" height="39"/>
<path fill-rule="evenodd" clip-rule="evenodd" d="M9.0637 7.64979V9.11638H7.56649V7.64979H9.0637ZM9.0637 11.664V13.1306H7.56649V11.664H9.0637ZM9.0637 15.6782V17.1448H7.56649V15.6782H9.0637ZM9.0637 19.6925V21.159H7.56649V19.6925H9.0637ZM12.6584 7.64979V9.11638H11.1612V7.64979H12.6584ZM12.6584 11.664V13.1306H11.1612V11.664H12.6584ZM12.6584 15.6782V17.1448H11.1612V15.6782H12.6584ZM12.6584 19.6925V21.159H11.1612V19.6925H12.6584ZM37.5027 34.879H2.4972V36.5199H37.5028L37.5027 34.879ZM30.8194 33.3989H34.8975V12.4047L30.8194 10.355V33.3989ZM19.9223 33.3989H29.3222V9.88924H21.497H21.4938H19.9223V33.3989ZM16.3808 33.3989V2.94267L20.7484 5.13078V8.40903H19.1737C18.7603 8.40903 18.4251 8.7404 18.4251 9.1491V33.3988L16.3808 33.3989ZM1.7486 33.3989C1.33519 33.3989 1 33.7302 1 34.1389V37.2599C1 37.6686 1.33519 38 1.7486 38H38.2514C38.6648 38 39 37.6686 39 37.2599V34.1389C39 33.7302 38.6648 33.3989 38.2514 33.3989H36.3948V11.9513C36.3945 11.6821 36.2448 11.4227 35.9854 11.2922L30.4363 8.50311C30.3282 8.44323 30.2036 8.40903 30.0709 8.40903H22.2458V4.67826H22.244C22.2438 4.40864 22.0936 4.14888 21.8335 4.01912L16.0179 1.10558C15.9053 1.03858 15.7734 1 15.6323 1H4.73509C4.32168 1 3.98649 1.33137 3.98649 1.74007V33.3988L1.7486 33.3989ZM11.1818 33.3989H9.18545V29.877H11.1818V33.3989ZM7.68825 33.3989V29.137C7.68825 28.7283 8.02344 28.3969 8.43685 28.3969H11.9304C12.3438 28.3969 12.679 28.7283 12.679 29.137V33.3989H14.8836V2.48013H5.48369V33.3988L7.68825 33.3989ZM9.0637 23.7067V25.1733H7.56649V23.7067H9.0637ZM12.6584 23.7067V25.1733H11.1612V23.7067H12.6584ZM23.6644 15.0645V16.5311H22.1672V15.0645H23.6644ZM23.6644 19.0788V20.5453H22.1672V19.0788H23.6644ZM23.6644 23.093V24.5595H22.1672V23.093H23.6644ZM27.2591 15.0645V16.5311H25.7619V15.0645H27.2591ZM27.2591 19.0788V20.5453H25.7619V19.0788H27.2591ZM27.2591 23.093V24.5595H25.7619V23.093H27.2591ZM23.6644 27.1073V28.5739H22.1672V27.1073H23.6644ZM27.2591 27.1073V28.5739H25.7619V27.1073H27.2591Z"/>
</mask>
<path fill-rule="evenodd" clip-rule="evenodd" d="M9.0637 7.64979V9.11638H7.56649V7.64979H9.0637ZM9.0637 11.664V13.1306H7.56649V11.664H9.0637ZM9.0637 15.6782V17.1448H7.56649V15.6782H9.0637ZM9.0637 19.6925V21.159H7.56649V19.6925H9.0637ZM12.6584 7.64979V9.11638H11.1612V7.64979H12.6584ZM12.6584 11.664V13.1306H11.1612V11.664H12.6584ZM12.6584 15.6782V17.1448H11.1612V15.6782H12.6584ZM12.6584 19.6925V21.159H11.1612V19.6925H12.6584ZM37.5027 34.879H2.4972V36.5199H37.5028L37.5027 34.879ZM30.8194 33.3989H34.8975V12.4047L30.8194 10.355V33.3989ZM19.9223 33.3989H29.3222V9.88924H21.497H21.4938H19.9223V33.3989ZM16.3808 33.3989V2.94267L20.7484 5.13078V8.40903H19.1737C18.7603 8.40903 18.4251 8.7404 18.4251 9.1491V33.3988L16.3808 33.3989ZM1.7486 33.3989C1.33519 33.3989 1 33.7302 1 34.1389V37.2599C1 37.6686 1.33519 38 1.7486 38H38.2514C38.6648 38 39 37.6686 39 37.2599V34.1389C39 33.7302 38.6648 33.3989 38.2514 33.3989H36.3948V11.9513C36.3945 11.6821 36.2448 11.4227 35.9854 11.2922L30.4363 8.50311C30.3282 8.44323 30.2036 8.40903 30.0709 8.40903H22.2458V4.67826H22.244C22.2438 4.40864 22.0936 4.14888 21.8335 4.01912L16.0179 1.10558C15.9053 1.03858 15.7734 1 15.6323 1H4.73509C4.32168 1 3.98649 1.33137 3.98649 1.74007V33.3988L1.7486 33.3989ZM11.1818 33.3989H9.18545V29.877H11.1818V33.3989ZM7.68825 33.3989V29.137C7.68825 28.7283 8.02344 28.3969 8.43685 28.3969H11.9304C12.3438 28.3969 12.679 28.7283 12.679 29.137V33.3989H14.8836V2.48013H5.48369V33.3988L7.68825 33.3989ZM9.0637 23.7067V25.1733H7.56649V23.7067H9.0637ZM12.6584 23.7067V25.1733H11.1612V23.7067H12.6584ZM23.6644 15.0645V16.5311H22.1672V15.0645H23.6644ZM23.6644 19.0788V20.5453H22.1672V19.0788H23.6644ZM23.6644 23.093V24.5595H22.1672V23.093H23.6644ZM27.2591 15.0645V16.5311H25.7619V15.0645H27.2591ZM27.2591 19.0788V20.5453H25.7619V19.0788H27.2591ZM27.2591 23.093V24.5595H25.7619V23.093H27.2591ZM23.6644 27.1073V28.5739H22.1672V27.1073H23.6644ZM27.2591 27.1073V28.5739H25.7619V27.1073H27.2591Z" fill="#0366D6"/>
<path fill-rule="evenodd" clip-rule="evenodd" d="M9.0637 7.64979V9.11638H7.56649V7.64979H9.0637ZM9.0637 11.664V13.1306H7.56649V11.664H9.0637ZM9.0637 15.6782V17.1448H7.56649V15.6782H9.0637ZM9.0637 19.6925V21.159H7.56649V19.6925H9.0637ZM12.6584 7.64979V9.11638H11.1612V7.64979H12.6584ZM12.6584 11.664V13.1306H11.1612V11.664H12.6584ZM12.6584 15.6782V17.1448H11.1612V15.6782H12.6584ZM12.6584 19.6925V21.159H11.1612V19.6925H12.6584ZM37.5027 34.879H2.4972V36.5199H37.5028L37.5027 34.879ZM30.8194 33.3989H34.8975V12.4047L30.8194 10.355V33.3989ZM19.9223 33.3989H29.3222V9.88924H21.497H21.4938H19.9223V33.3989ZM16.3808 33.3989V2.94267L20.7484 5.13078V8.40903H19.1737C18.7603 8.40903 18.4251 8.7404 18.4251 9.1491V33.3988L16.3808 33.3989ZM1.7486 33.3989C1.33519 33.3989 1 33.7302 1 34.1389V37.2599C1 37.6686 1.33519 38 1.7486 38H38.2514C38.6648 38 39 37.6686 39 37.2599V34.1389C39 33.7302 38.6648 33.3989 38.2514 33.3989H36.3948V11.9513C36.3945 11.6821 36.2448 11.4227 35.9854 11.2922L30.4363 8.50311C30.3282 8.44323 30.2036 8.40903 30.0709 8.40903H22.2458V4.67826H22.244C22.2438 4.40864 22.0936 4.14888 21.8335 4.01912L16.0179 1.10558C15.9053 1.03858 15.7734 1 15.6323 1H4.73509C4.32168 1 3.98649 1.33137 3.98649 1.74007V33.3988L1.7486 33.3989ZM11.1818 33.3989H9.18545V29.877H11.1818V33.3989ZM7.68825 33.3989V29.137C7.68825 28.7283 8.02344 28.3969 8.43685 28.3969H11.9304C12.3438 28.3969 12.679 28.7283 12.679 29.137V33.3989H14.8836V2.48013H5.48369V33.3988L7.68825 33.3989ZM9.0637 23.7067V25.1733H7.56649V23.7067H9.0637ZM12.6584 23.7067V25.1733H11.1612V23.7067H12.6584ZM23.6644 15.0645V16.5311H22.1672V15.0645H23.6644ZM23.6644 19.0788V20.5453H22.1672V19.0788H23.6644ZM23.6644 23.093V24.5595H22.1672V23.093H23.6644ZM27.2591 15.0645V16.5311H25.7619V15.0645H27.2591ZM27.2591 19.0788V20.5453H25.7619V19.0788H27.2591ZM27.2591 23.093V24.5595H25.7619V23.093H27.2591ZM23.6644 27.1073V28.5739H22.1672V27.1073H23.6644ZM27.2591 27.1073V28.5739H25.7619V27.1073H27.2591Z" stroke="#0366D6" stroke-width="0.6" mask="url(#path-1-outside-1_1_36)"/>
<path d="M57.38 26.78C56.2733 26.78 55.2467 26.6067 54.3 26.26C53.3667 25.9 52.5533 25.3933 51.86 24.74C51.18 24.0867 50.6467 23.32 50.26 22.44C49.8733 21.5467 49.68 20.5667 49.68 19.5C49.68 18.4333 49.8733 17.46 50.26 16.58C50.6467 15.6867 51.18 14.9133 51.86 14.26C52.5533 13.6067 53.3667 13.1067 54.3 12.76C55.2467 12.4 56.2733 12.22 57.38 12.22C58.6733 12.22 59.8267 12.4467 60.84 12.9C61.8667 13.3533 62.72 14.0067 63.4 14.86L60.88 17.14C60.4267 16.6067 59.9267 16.2 59.38 15.92C58.8467 15.64 58.2467 15.5 57.58 15.5C57.0067 15.5 56.48 15.5933 56 15.78C55.52 15.9667 55.1067 16.24 54.76 16.6C54.4267 16.9467 54.16 17.3667 53.96 17.86C53.7733 18.3533 53.68 18.9 53.68 19.5C53.68 20.1 53.7733 20.6467 53.96 21.14C54.16 21.6333 54.4267 22.06 54.76 22.42C55.1067 22.7667 55.52 23.0333 56 23.22C56.48 23.4067 57.0067 23.5 57.58 23.5C58.2467 23.5 58.8467 23.36 59.38 23.08C59.9267 22.8 60.4267 22.3933 60.88 21.86L63.4 24.14C62.72 24.98 61.8667 25.6333 60.84 26.1C59.8267 26.5533 58.6733 26.78 57.38 26.78ZM71.9327 26.78C70.8127 26.78 69.7793 26.6 68.8327 26.24C67.886 25.88 67.0593 25.3733 66.3527 24.72C65.6593 24.0533 65.1193 23.28 64.7327 22.4C64.346 21.52 64.1527 20.5533 64.1527 19.5C64.1527 18.4467 64.346 17.48 64.7327 16.6C65.1193 15.72 65.6593 14.9533 66.3527 14.3C67.0593 13.6333 67.886 13.12 68.8327 12.76C69.7793 12.4 70.8127 12.22 71.9327 12.22C73.066 12.22 74.0993 12.4 75.0327 12.76C75.9793 13.12 76.7993 13.6333 77.4927 14.3C78.186 14.9533 78.726 15.72 79.1127 16.6C79.5127 17.48 79.7127 18.4467 79.7127 19.5C79.7127 20.5533 79.5127 21.5267 79.1127 22.42C78.726 23.3 78.186 24.0667 77.4927 24.72C76.7993 25.3733 75.9793 25.88 75.0327 26.24C74.0993 26.6 73.066 26.78 71.9327 26.78ZM71.9327 23.5C72.466 23.5 72.9593 23.4067 73.4127 23.22C73.8793 23.0333 74.2793 22.7667 74.6127 22.42C74.9593 22.06 75.226 21.6333 75.4127 21.14C75.6127 20.6467 75.7127 20.1 75.7127 19.5C75.7127 18.8867 75.6127 18.34 75.4127 17.86C75.226 17.3667 74.9593 16.9467 74.6127 16.6C74.2793 16.24 73.8793 15.9667 73.4127 15.78C72.9593 15.5933 72.466 15.5 71.9327 15.5C71.3993 15.5 70.8993 15.5933 70.4327 15.78C69.9793 15.9667 69.5793 16.24 69.2327 16.6C68.8993 16.9467 68.6327 17.3667 68.4327 17.86C68.246 18.34 68.1527 18.8867 68.1527 19.5C68.1527 20.1 68.246 20.6467 68.4327 21.14C68.6327 21.6333 68.8993 22.06 69.2327 22.42C69.5793 22.7667 69.9793 23.0333 70.4327 23.22C70.8993 23.4067 71.3993 23.5 71.9327 23.5ZM81.7867 26.5V12.5H85.0467L90.8467 22.02H89.1267L94.7667 12.5H98.0267L98.0667 26.5H94.4267L94.3867 18.04H95.0067L90.7867 25.12H89.0267L84.6867 18.04H85.4467V26.5H81.7867ZM100.869 26.5V12.5H107.269C108.549 12.5 109.649 12.7067 110.569 13.12C111.502 13.5333 112.222 14.1333 112.729 14.92C113.235 15.6933 113.489 16.6133 113.489 17.68C113.489 18.7333 113.235 19.6467 112.729 20.42C112.222 21.1933 111.502 21.7933 110.569 22.22C109.649 22.6333 108.549 22.84 107.269 22.84H103.069L104.829 21.12V26.5H100.869ZM104.829 21.54L103.069 19.72H107.029C107.855 19.72 108.469 19.54 108.869 19.18C109.282 18.82 109.489 18.32 109.489 17.68C109.489 17.0267 109.282 16.52 108.869 16.16C108.469 15.8 107.855 15.62 107.029 15.62H103.069L104.829 13.8V21.54ZM113.036 26.5L119.216 12.5H123.116L129.316 26.5H125.196L120.356 14.44H121.916L117.076 26.5H113.036ZM116.416 23.78L117.436 20.86H124.276L125.296 23.78H116.416ZM130.439 26.5V12.5H133.699L141.419 21.82H139.879V12.5H143.759V26.5H140.499L132.779 17.18H134.319V26.5H130.439ZM150.092 26.5V20.58L151.012 22.96L144.752 12.5H148.932L153.452 20.08H151.032L155.572 12.5H159.412L153.172 22.96L154.052 20.58V26.5H150.092Z" fill="black"/>
</svg>
