<svg width="202" height="48" viewBox="0 0 202 48" fill="none" xmlns="http://www.w3.org/2000/svg">
<path fill-rule="evenodd" clip-rule="evenodd" d="M5.62314 6.24646C6.32787 5.28072 7.44671 5 8.56324 5C11.2816 5 12.6571 6.99638 13.3304 8.656C13.6747 9.50483 13.8896 10.3775 14.0386 11.0933C14.1231 11.4992 14.1783 11.8024 14.2226 12.0462C14.2683 12.2973 14.3025 12.4853 14.3454 12.657L14.3841 12.8117L14.3884 12.9712C14.4001 13.4079 14.4513 14.0432 14.5532 14.5358C14.5702 14.6178 14.5873 14.6897 14.6041 14.7514C14.9628 15.0167 15.1953 15.4427 15.1953 15.9231C15.1953 16.7274 14.5433 17.3795 13.7389 17.3795C12.6944 17.3795 12.2072 16.5278 12.0742 16.2677C11.8845 15.8968 11.7727 15.4734 11.7008 15.1258C11.565 14.4692 11.5025 13.7297 11.4816 13.1994C11.4353 12.9869 11.3828 12.707 11.3293 12.4214C11.2814 12.1665 11.2328 11.9071 11.1869 11.687C11.0525 11.0415 10.8799 10.364 10.6312 9.75098C10.1184 8.4869 9.48595 7.91282 8.56324 7.91282C8.20587 7.91282 8.03675 7.95777 7.96867 7.98584C7.94615 8.05352 7.89111 8.27709 7.92355 8.82858C7.95376 9.34223 8.03915 9.9247 8.14533 10.6489C8.18303 10.9061 8.22336 11.1812 8.26476 11.4774C8.41588 12.5585 8.56324 13.8199 8.56324 15.1949C8.56324 16.0591 8.50173 17.0948 8.43815 18.1653C8.40502 18.7231 8.37133 19.2904 8.34549 19.8477C8.26702 21.5405 8.2491 23.2834 8.46039 24.9315C8.87981 28.203 10.1455 30.8369 13.4302 32.0313L13.4564 32.0408L13.4822 32.0513C14.2342 32.3578 15.2067 32.3805 16.1037 32.3805C16.9081 32.3805 17.5601 33.0326 17.5601 33.8369C17.5601 34.6413 16.9081 35.2934 16.1037 35.2934L16.0589 35.2934C15.2393 35.2936 13.7407 35.2939 12.4098 34.7596C7.70339 33.0365 6.06118 29.1236 5.57121 25.3019C5.32737 23.3999 5.35497 21.4563 5.43579 19.7129C5.46642 19.0522 5.50329 18.4363 5.53776 17.8604C5.59771 16.8589 5.65042 15.9785 5.65042 15.1949C5.65042 14.0212 5.5247 12.9159 5.37999 11.8806C5.34765 11.6493 5.31321 11.4149 5.27877 11.1805C5.16638 10.4156 5.05408 9.65131 5.01575 8.99963C4.9678 8.18451 4.99316 7.10977 5.62314 6.24646ZM7.92995 8.00778C7.92906 8.00715 7.93437 8.00227 7.94852 7.99503C7.93791 8.00479 7.93084 8.00841 7.92995 8.00778Z" fill="#2E8B57"/>
<path fill-rule="evenodd" clip-rule="evenodd" d="M20.4403 10.6953C18.5334 11.8871 16.6748 14.2158 15.6377 15.9442C15.2239 16.634 14.3293 16.8576 13.6396 16.4438C12.9498 16.03 12.7262 15.1353 13.14 14.4456C14.2876 12.533 16.4341 9.76426 18.8965 8.22526C20.1357 7.45074 21.6224 6.88363 23.1862 7.0954C24.8156 7.31604 26.2002 8.3338 27.2752 10.0538L27.2822 10.065L27.289 10.0763C28.1565 11.522 27.9738 13.3045 27.5126 14.8129C27.0329 16.3816 26.1493 18.0042 25.1262 19.417C24.105 20.8272 22.8796 22.1186 21.6519 22.9766C21.0395 23.4046 20.3686 23.7657 19.6761 23.9508C18.9778 24.1374 18.1561 24.1684 17.3786 23.7796C16.611 23.3958 15.9766 22.8744 15.5792 22.1725C15.1746 21.4577 15.0982 20.7015 15.1946 20.0079C15.3722 18.73 16.167 17.4881 16.8422 16.5366C18.0399 14.8488 19.4973 13.1242 19.9129 12.7086C20.4817 12.1399 21.4038 12.1399 21.9726 12.7086C22.5413 13.2774 22.5413 14.1995 21.9726 14.7683C21.7151 15.0258 20.3635 16.6076 19.2177 18.2224C18.5289 19.193 18.1487 19.9122 18.0797 20.4088C18.0528 20.6024 18.0853 20.6867 18.1141 20.7375C18.1498 20.8007 18.2717 20.9677 18.6711 21.1692C18.6939 21.173 18.7692 21.1781 18.924 21.1368C19.1786 21.0687 19.5375 20.9007 19.9832 20.5891C20.8719 19.968 21.8766 18.9382 22.767 17.7086C23.6554 16.4817 24.3648 15.146 24.7271 13.9611C25.1047 12.7261 25.0177 11.9623 24.7968 11.5842C24.0543 10.4021 23.3485 10.0568 22.7954 9.98188C22.1747 9.89782 21.3857 10.1044 20.4403 10.6953ZM18.6632 21.1673C18.6633 21.1672 18.6651 21.1675 18.6683 21.1687C18.6648 21.168 18.6632 21.1674 18.6632 21.1673Z" fill="#2E8B57"/>
<path fill-rule="evenodd" clip-rule="evenodd" d="M31.0486 13.2358C30.8464 12.6552 30.4027 11.887 29.6413 11.3377C28.7872 10.7214 27.632 10.459 26.3078 10.9004C25.5448 11.1548 25.1324 11.9796 25.3867 12.7426C25.6411 13.5057 26.4659 13.9181 27.229 13.6637C27.4686 13.5839 27.619 13.5875 27.7026 13.6005C27.7874 13.6137 27.8622 13.6459 27.937 13.6998C28.1159 13.8289 28.2519 14.056 28.2996 14.199L28.3131 14.2396L28.329 14.2794C28.5116 14.736 28.5231 15.5317 28.1749 16.6685C27.8394 17.7639 27.2289 18.9785 26.4668 20.1216C25.7053 21.2639 24.8329 22.274 24.0172 22.9802C23.6095 23.3332 23.2429 23.5869 22.9365 23.7461C22.618 23.9116 22.445 23.9334 22.399 23.9334C22.2474 23.9334 22.1807 23.9072 22.164 23.8992C22.1595 23.8926 22.1518 23.8791 22.142 23.8543C22.072 23.6766 22.0087 23.1585 22.3251 22.2092C22.5794 21.4461 22.1669 20.6214 21.4039 20.367C20.6408 20.1127 19.816 20.5252 19.5617 21.2883C19.15 22.5236 18.9998 23.826 19.4322 24.9227C19.6596 25.4993 20.0467 26.0068 20.603 26.3588C21.151 26.7056 21.7749 26.8462 22.399 26.8462C23.0812 26.8462 23.7275 26.6176 24.2795 26.3308C24.8435 26.0378 25.3986 25.6372 25.9239 25.1823C26.9743 24.2728 28.0135 23.0528 28.8904 21.7374C29.7668 20.4228 30.5218 18.9521 30.96 17.5216C31.3815 16.1454 31.5754 14.5908 31.0486 13.2358ZM22.1605 23.8974C22.1606 23.8974 22.1606 23.8974 22.1606 23.8974L22.1605 23.8974ZM22.1651 23.9007C22.1675 23.9027 22.1686 23.9042 22.1685 23.9044C22.1685 23.9046 22.1673 23.9036 22.1651 23.9007Z" fill="#2E8B57"/>
<path fill-rule="evenodd" clip-rule="evenodd" d="M42.3352 13.7498C42.0053 13.7894 41.7917 13.9142 41.7124 13.9936C41.015 14.6909 39.5581 15.7392 38.1535 16.6973C36.7019 17.6877 35.1559 18.6815 34.1724 19.2962C33.4903 19.7225 32.5917 19.5151 32.1654 18.8331C31.7391 18.151 31.9465 17.2524 32.6286 16.8261C33.5869 16.2271 35.0994 15.2548 36.512 14.2911C37.9717 13.2953 39.1849 12.4017 39.6527 11.9339C40.3015 11.285 41.1802 10.9547 41.9882 10.8577C42.7986 10.7605 43.7328 10.8744 44.5267 11.3508C45.3829 11.8645 45.9888 12.7588 46.0294 13.9376C46.067 15.0264 45.6189 16.195 44.8071 17.4126C41.7237 22.0378 37.1374 25.1031 35.5082 25.9177C35.0957 26.1239 34.5364 26.6192 33.6446 27.7787C32.7717 28.9134 31.7114 30.5024 30.243 32.7049C28.5909 35.1831 25.9171 37.061 23.1756 37.7071C20.387 38.3644 17.3214 37.7583 15.4399 34.9361C14.9937 34.2668 15.1746 33.3626 15.8439 32.9164C16.5131 32.4702 17.4174 32.6511 17.8635 33.3204C18.8949 34.8674 20.5626 35.3304 22.5074 34.872C24.4992 34.4026 26.5587 32.9803 27.8194 31.0892L27.8521 31.0402C29.2808 28.897 30.3954 27.2252 31.3358 26.0027C32.2645 24.7954 33.1616 23.8343 34.2055 23.3124C35.4892 22.6705 39.6413 19.9102 42.3835 15.7969C43.0282 14.8299 43.1263 14.269 43.1183 14.0379C43.1135 13.8997 43.0833 13.8816 43.0313 13.8504L43.0281 13.8485C42.9117 13.7787 42.6626 13.7105 42.3352 13.7498Z" fill="#2E8B57"/>
<path fill-rule="evenodd" clip-rule="evenodd" d="M8.56326 29.0308C9.36761 29.0308 10.0197 29.6828 10.0197 30.4872C10.0197 31.355 9.68731 32.4224 9.38406 33.2472C9.05913 34.131 8.67241 34.982 8.4095 35.5078C8.04978 36.2272 7.17496 36.5188 6.45552 36.1591C5.73608 35.7994 5.44447 34.9245 5.80419 34.2051C6.02676 33.76 6.36824 33.0089 6.65015 32.2421C6.95374 31.4163 7.10685 30.7845 7.10685 30.4872C7.10685 29.6828 7.7589 29.0308 8.56326 29.0308Z" fill="#2E8B57"/>
<path fill-rule="evenodd" clip-rule="evenodd" d="M21.5954 36.3897C21.9551 37.1092 21.6635 37.984 20.9441 38.3437C19.6942 38.9687 17.835 40.5263 16.9826 41.5919C16.4801 42.22 15.5636 42.3218 14.9355 41.8194C14.3074 41.3169 14.2056 40.4004 14.708 39.7723C15.7975 38.4105 17.9786 36.5698 19.6414 35.7384C20.3609 35.3787 21.2357 35.6703 21.5954 36.3897Z" fill="#2E8B57"/>
<path fill-rule="evenodd" clip-rule="evenodd" d="M29.0086 14.7948C29.2296 14.0214 30.0357 13.5735 30.8091 13.7945C31.9982 14.1342 33.5192 15.1083 34.1098 16.977C34.7037 18.8563 34.2201 21.2064 32.349 24.013C31.2013 25.7347 30.0974 26.9628 29.0441 27.773C27.9942 28.5806 26.9157 29.0308 25.8577 29.0308C23.5417 29.0308 22.3987 27.0265 22.3987 25.3898C22.3987 24.5854 23.0508 23.9334 23.8552 23.9334C24.6595 23.9334 25.3116 24.5854 25.3116 25.3898C25.3116 25.9376 25.6251 26.118 25.8577 26.118C26.0741 26.118 26.543 26.022 27.2681 25.4642C27.9899 24.909 28.8886 23.9525 29.9254 22.3973C31.5497 19.9608 31.5516 18.5485 31.3323 17.8548C31.1098 17.1505 30.519 16.741 30.0089 16.5953C29.2355 16.3743 28.7877 15.5682 29.0086 14.7948Z" fill="#2E8B57"/>
<path d="M66.0636 36.3785C64.7836 36.3785 63.5916 36.1705 62.4876 35.7545C61.3996 35.3225 60.4476 34.7225 59.6316 33.9545C58.8316 33.1705 58.2076 32.2505 57.7596 31.1945C57.3116 30.1385 57.0876 28.9865 57.0876 27.7385C57.0876 26.4905 57.3116 25.3385 57.7596 24.2825C58.2076 23.2265 58.8396 22.3145 59.6556 21.5465C60.4716 20.7625 61.4236 20.1625 62.5116 19.7465C63.5996 19.3145 64.7916 19.0985 66.0876 19.0985C67.4636 19.0985 68.7196 19.3385 69.8556 19.8185C70.9916 20.2825 71.9516 20.9785 72.7356 21.9065L70.7196 23.8025C70.1116 23.1465 69.4316 22.6585 68.6796 22.3385C67.9276 22.0025 67.1116 21.8345 66.2316 21.8345C65.3516 21.8345 64.5436 21.9785 63.8076 22.2665C63.0876 22.5545 62.4556 22.9625 61.9116 23.4905C61.3836 24.0185 60.9676 24.6425 60.6636 25.3625C60.3756 26.0825 60.2316 26.8745 60.2316 27.7385C60.2316 28.6025 60.3756 29.3945 60.6636 30.1145C60.9676 30.8345 61.3836 31.4585 61.9116 31.9865C62.4556 32.5145 63.0876 32.9225 63.8076 33.2105C64.5436 33.4985 65.3516 33.6425 66.2316 33.6425C67.1116 33.6425 67.9276 33.4825 68.6796 33.1625C69.4316 32.8265 70.1116 32.3225 70.7196 31.6505L72.7356 33.5705C71.9516 34.4825 70.9916 35.1785 69.8556 35.6585C68.7196 36.1385 67.4556 36.3785 66.0636 36.3785ZM83.2455 36.3785C81.9335 36.3785 80.7255 36.1625 79.6215 35.7305C78.5175 35.2985 77.5575 34.6985 76.7415 33.9305C75.9255 33.1465 75.2935 32.2345 74.8455 31.1945C74.3975 30.1385 74.1735 28.9865 74.1735 27.7385C74.1735 26.4905 74.3975 25.3465 74.8455 24.3065C75.2935 23.2505 75.9255 22.3385 76.7415 21.5705C77.5575 20.7865 78.5175 20.1785 79.6215 19.7465C80.7255 19.3145 81.9255 19.0985 83.2215 19.0985C84.5335 19.0985 85.7335 19.3145 86.8215 19.7465C87.9255 20.1785 88.8855 20.7865 89.7015 21.5705C90.5175 22.3385 91.1495 23.2505 91.5975 24.3065C92.0455 25.3465 92.2695 26.4905 92.2695 27.7385C92.2695 28.9865 92.0455 30.1385 91.5975 31.1945C91.1495 32.2505 90.5175 33.1625 89.7015 33.9305C88.8855 34.6985 87.9255 35.2985 86.8215 35.7305C85.7335 36.1625 84.5415 36.3785 83.2455 36.3785ZM83.2215 33.6425C84.0695 33.6425 84.8535 33.4985 85.5735 33.2105C86.2935 32.9225 86.9175 32.5145 87.4455 31.9865C87.9735 31.4425 88.3815 30.8185 88.6695 30.1145C88.9735 29.3945 89.1255 28.6025 89.1255 27.7385C89.1255 26.8745 88.9735 26.0905 88.6695 25.3865C88.3815 24.6665 87.9735 24.0425 87.4455 23.5145C86.9175 22.9705 86.2935 22.5545 85.5735 22.2665C84.8535 21.9785 84.0695 21.8345 83.2215 21.8345C82.3735 21.8345 81.5895 21.9785 80.8695 22.2665C80.1655 22.5545 79.5415 22.9705 78.9975 23.5145C78.4695 24.0425 78.0535 24.6665 77.7495 25.3865C77.4615 26.0905 77.3175 26.8745 77.3175 27.7385C77.3175 28.5865 77.4615 29.3705 77.7495 30.0905C78.0535 30.8105 78.4695 31.4425 78.9975 31.9865C79.5255 32.5145 80.1495 32.9225 80.8695 33.2105C81.5895 33.4985 82.3735 33.6425 83.2215 33.6425ZM95.5766 36.1385V19.3385H98.1446L105.489 31.6025H104.145L111.369 19.3385H113.937L113.961 36.1385H111.009L110.985 23.9705H111.609L105.465 34.2185H104.073L97.8326 23.9705H98.5526V36.1385H95.5766ZM118.499 36.1385V19.3385H125.411C126.899 19.3385 128.171 19.5785 129.227 20.0585C130.299 20.5385 131.123 21.2265 131.699 22.1225C132.275 23.0185 132.563 24.0825 132.563 25.3145C132.563 26.5465 132.275 27.6105 131.699 28.5065C131.123 29.4025 130.299 30.0905 129.227 30.5705C128.171 31.0505 126.899 31.2905 125.411 31.2905H120.227L121.619 29.8265V36.1385H118.499ZM121.619 30.1625L120.227 28.6505H125.267C126.643 28.6505 127.675 28.3625 128.363 27.7865C129.067 27.1945 129.419 26.3705 129.419 25.3145C129.419 24.2425 129.067 23.4185 128.363 22.8425C127.675 22.2665 126.643 21.9785 125.267 21.9785H120.227L121.619 20.4425V30.1625ZM132.458 36.1385L140.018 19.3385H143.09L150.674 36.1385H147.41L140.906 20.9945H142.154L135.674 36.1385H132.458ZM135.938 32.2505L136.778 29.8025H145.85L146.69 32.2505H135.938ZM152.811 36.1385V19.3385H155.379L165.915 32.2745H164.643V19.3385H167.739V36.1385H165.171L154.635 23.2025H155.907V36.1385H152.811ZM176.369 36.1385V29.4905L177.065 31.4105L169.769 19.3385H173.105L178.961 29.0585H177.089L182.993 19.3385H186.065L178.769 31.4105L179.489 29.4905V36.1385H176.369Z" fill="black"/>
</svg>
