<svg width="178" height="37" viewBox="0 0 178 37" fill="none" xmlns="http://www.w3.org/2000/svg">
<path d="M3.03174 7.1373C2.02614 8.32685 1.24129 9.71261 0.763013 11.2333C3.48549 10.6201 7.10319 10.4729 9.15118 10.3135C9.78888 7.68915 11.6039 5.69022 14.6452 5.82512C15.9574 5.88643 17.1101 6.73261 17.9073 8.03253C18.4959 7.40709 19.2808 6.99014 20.3231 6.84298C20.3967 6.84298 20.5561 6.83071 20.6788 6.83071C18.5204 4.47614 15.4423 2.98001 11.9963 2.98001C11.3709 2.98001 10.7577 3.04132 10.1445 3.13943C10.0219 3.13943 9.86246 3.16396 9.65398 3.21301C9.64172 3.21301 9.61719 3.21301 9.60493 3.21301C9.59266 3.21301 9.5804 3.21301 9.55587 3.21301C7.17677 3.78939 5.38632 3.32338 4.36845 1.93762C4.25808 1.79046 3.82886 1.1405 3.69397 0C2.9459 0.772594 2.45536 2.04799 2.87232 3.40923C3.20343 4.4884 3.82886 5.06478 4.50335 5.3959C3.47323 5.45721 2.61479 5.261 1.75635 4.61104C1.25355 4.23087 0.934701 3.81392 0.407375 2.72248C-0.0831615 3.49507 -0.0341079 4.35351 0.0639993 4.79499C0.186633 5.38363 0.493218 6.04586 0.885647 6.42602C1.48655 7.01466 2.34499 7.14956 3.04401 7.1373H3.03174Z" fill="#8B0000"/>
<path d="M14.6572 17.2793C16.1811 17.2793 17.4164 15.1655 17.4164 12.5579C17.4164 9.95036 16.1811 7.83651 14.6572 7.83651C13.1333 7.83651 11.8979 9.95036 11.8979 12.5579C11.8979 15.1655 13.1333 17.2793 14.6572 17.2793Z" fill="#8B0000"/>
<path d="M20.7276 16.1389C21.9196 16.1389 22.8859 14.4588 22.8859 12.3863C22.8859 10.3138 21.9196 8.63371 20.7276 8.63371C19.5355 8.63371 18.5692 10.3138 18.5692 12.3863C18.5692 14.4588 19.5355 16.1389 20.7276 16.1389Z" fill="#8B0000"/>
<path fill-rule="evenodd" clip-rule="evenodd" d="M10.0409 37C10.0533 36.4509 10.258 34.7216 12.0086 31.2596C12.7812 29.7512 14.5349 27.6664 15.8471 26.5382C16.5461 25.925 17.2451 25.41 17.9318 24.9317C18.2875 24.7232 18.6186 24.5025 18.9374 24.2695C24.6816 20.7477 29.7523 21.4831 33.959 22.0932L34.0827 22.1111C34.0827 22.1111 35.0883 19.1189 30.9433 17.5737C28.6868 16.7398 26.0257 16.0653 23.806 15.5993C23.4872 16.1756 23.0825 16.6662 22.6042 17.0341C22.5977 17.039 22.5909 17.0441 22.584 17.0492C22.2283 17.3166 21.3849 17.9503 19.8572 17.7699C19.0723 17.6718 18.4714 17.3529 17.9932 16.8869C17.1838 18.2236 16.0188 19.0943 14.6698 19.217C10.9294 19.5358 9.04088 16.3964 8.91824 12.9258C6.10992 13.1956 2.28374 14.9248 0.248017 15.9304L0.258545 33.9668C2.856 34.9735 6.7526 36.2157 10.0409 37Z" fill="#8B0000"/>
<path d="M54.2461 31.336C52.9181 31.336 51.6861 31.128 50.5501 30.712C49.4301 30.28 48.4541 29.672 47.6221 28.888C46.8061 28.104 46.1661 27.184 45.7021 26.128C45.2381 25.056 45.0061 23.88 45.0061 22.6C45.0061 21.32 45.2381 20.152 45.7021 19.096C46.1661 18.024 46.8061 17.096 47.6221 16.312C48.4541 15.528 49.4301 14.928 50.5501 14.512C51.6861 14.08 52.9181 13.864 54.2461 13.864C55.7981 13.864 57.1821 14.136 58.3981 14.68C59.6301 15.224 60.6541 16.008 61.4701 17.032L58.4461 19.768C57.9021 19.128 57.3021 18.64 56.6461 18.304C56.0061 17.968 55.2861 17.8 54.4861 17.8C53.7981 17.8 53.1661 17.912 52.5901 18.136C52.0141 18.36 51.5181 18.688 51.1021 19.12C50.7021 19.536 50.3821 20.04 50.1421 20.632C49.9181 21.224 49.8061 21.88 49.8061 22.6C49.8061 23.32 49.9181 23.976 50.1421 24.568C50.3821 25.16 50.7021 25.672 51.1021 26.104C51.5181 26.52 52.0141 26.84 52.5901 27.064C53.1661 27.288 53.7981 27.4 54.4861 27.4C55.2861 27.4 56.0061 27.232 56.6461 26.896C57.3021 26.56 57.9021 26.072 58.4461 25.432L61.4701 28.168C60.6541 29.176 59.6301 29.96 58.3981 30.52C57.1821 31.064 55.7981 31.336 54.2461 31.336ZM71.7093 31.336C70.3653 31.336 69.1253 31.12 67.9893 30.688C66.8533 30.256 65.8613 29.648 65.0133 28.864C64.1813 28.064 63.5333 27.136 63.0693 26.08C62.6053 25.024 62.3733 23.864 62.3733 22.6C62.3733 21.336 62.6053 20.176 63.0693 19.12C63.5333 18.064 64.1813 17.144 65.0133 16.36C65.8613 15.56 66.8533 14.944 67.9893 14.512C69.1253 14.08 70.3653 13.864 71.7093 13.864C73.0693 13.864 74.3093 14.08 75.4293 14.512C76.5653 14.944 77.5493 15.56 78.3813 16.36C79.2133 17.144 79.8613 18.064 80.3253 19.12C80.8053 20.176 81.0453 21.336 81.0453 22.6C81.0453 23.864 80.8053 25.032 80.3253 26.104C79.8613 27.16 79.2133 28.08 78.3813 28.864C77.5493 29.648 76.5653 30.256 75.4293 30.688C74.3093 31.12 73.0693 31.336 71.7093 31.336ZM71.7093 27.4C72.3493 27.4 72.9413 27.288 73.4853 27.064C74.0453 26.84 74.5253 26.52 74.9253 26.104C75.3413 25.672 75.6613 25.16 75.8853 24.568C76.1253 23.976 76.2453 23.32 76.2453 22.6C76.2453 21.864 76.1253 21.208 75.8853 20.632C75.6613 20.04 75.3413 19.536 74.9253 19.12C74.5253 18.688 74.0453 18.36 73.4853 18.136C72.9413 17.912 72.3493 17.8 71.7093 17.8C71.0693 17.8 70.4693 17.912 69.9093 18.136C69.3653 18.36 68.8853 18.688 68.4693 19.12C68.0693 19.536 67.7493 20.04 67.5093 20.632C67.2853 21.208 67.1733 21.864 67.1733 22.6C67.1733 23.32 67.2853 23.976 67.5093 24.568C67.7493 25.16 68.0693 25.672 68.4693 26.104C68.8853 26.52 69.3653 26.84 69.9093 27.064C70.4693 27.288 71.0693 27.4 71.7093 27.4ZM83.5341 31V14.2H87.4461L94.4061 25.624H92.3421L99.1101 14.2H103.022L103.07 31H98.7021L98.6541 20.848H99.3981L94.3341 29.344H92.2221L87.0141 20.848H87.9261V31H83.5341ZM106.433 31V14.2H114.113C115.649 14.2 116.969 14.448 118.073 14.944C119.193 15.44 120.057 16.16 120.665 17.104C121.273 18.032 121.577 19.136 121.577 20.416C121.577 21.68 121.273 22.776 120.665 23.704C120.057 24.632 119.193 25.352 118.073 25.864C116.969 26.36 115.649 26.608 114.113 26.608H109.073L111.185 24.544V31H106.433ZM111.185 25.048L109.073 22.864H113.825C114.817 22.864 115.553 22.648 116.033 22.216C116.529 21.784 116.777 21.184 116.777 20.416C116.777 19.632 116.529 19.024 116.033 18.592C115.553 18.16 114.817 17.944 113.825 17.944H109.073L111.185 15.76V25.048ZM121.034 31L128.45 14.2H133.13L140.57 31H135.626L129.818 16.528H131.69L125.882 31H121.034ZM125.09 27.736L126.314 24.232H134.522L135.746 27.736H125.09ZM141.917 31V14.2H145.829L155.093 25.384H153.245V14.2H157.901V31H153.989L144.725 19.816H146.573V31H141.917ZM165.501 31V23.896L166.605 26.752L159.093 14.2H164.109L169.533 23.296H166.629L172.077 14.2H176.685L169.197 26.752L170.253 23.896V31H165.501Z" fill="black"/>
</svg>
