<svg width="195" height="47" viewBox="0 0 195 47" fill="none" xmlns="http://www.w3.org/2000/svg">
<mask id="path-1-outside-1_1_36" maskUnits="userSpaceOnUse" x="4" y="4" width="40" height="39" fill="black">
<rect fill="white" x="4" y="4" width="40" height="39"/>
<path fill-rule="evenodd" clip-rule="evenodd" d="M13.0637 11.6498V13.1164H11.5665V11.6498H13.0637ZM13.0637 15.664V17.1306H11.5665V15.664H13.0637ZM13.0637 19.6782V21.1448H11.5665V19.6782H13.0637ZM13.0637 23.6925V25.159H11.5665V23.6925H13.0637ZM16.6584 11.6498V13.1164H15.1612V11.6498H16.6584ZM16.6584 15.664V17.1306H15.1612V15.664H16.6584ZM16.6584 19.6782V21.1448H15.1612V19.6782H16.6584ZM16.6584 23.6925V25.159H15.1612V23.6925H16.6584ZM41.5027 38.879H6.4972V40.5199H41.5028L41.5027 38.879ZM34.8194 37.3989H38.8975V16.4047L34.8194 14.355V37.3989ZM23.9223 37.3989H33.3222V13.8892H25.497H25.4938H23.9223V37.3989ZM20.3808 37.3989V6.94267L24.7484 9.13078V12.409H23.1737C22.7603 12.409 22.4251 12.7404 22.4251 13.1491V37.3988L20.3808 37.3989ZM5.7486 37.3989C5.33519 37.3989 5 37.7302 5 38.1389V41.2599C5 41.6686 5.33519 42 5.7486 42H42.2514C42.6648 42 43 41.6686 43 41.2599V38.1389C43 37.7302 42.6648 37.3989 42.2514 37.3989H40.3948V15.9513C40.3945 15.6821 40.2448 15.4227 39.9854 15.2922L34.4363 12.5031C34.3282 12.4432 34.2036 12.409 34.0709 12.409H26.2458V8.67826H26.244C26.2438 8.40864 26.0936 8.14888 25.8335 8.01912L20.0179 5.10558C19.9053 5.03858 19.7734 5 19.6323 5H8.73509C8.32168 5 7.98649 5.33137 7.98649 5.74007V37.3988L5.7486 37.3989ZM15.1818 37.3989H13.1855V33.877H15.1818V37.3989ZM11.6883 37.3989V33.137C11.6883 32.7283 12.0234 32.3969 12.4369 32.3969H15.9304C16.3438 32.3969 16.679 32.7283 16.679 33.137V37.3989H18.8836V6.48013H9.48369V37.3988L11.6883 37.3989ZM13.0637 27.7067V29.1733H11.5665V27.7067H13.0637ZM16.6584 27.7067V29.1733H15.1612V27.7067H16.6584ZM27.6644 19.0645V20.5311H26.1672V19.0645H27.6644ZM27.6644 23.0788V24.5453H26.1672V23.0788H27.6644ZM27.6644 27.093V28.5595H26.1672V27.093H27.6644ZM31.2591 19.0645V20.5311H29.7619V19.0645H31.2591ZM31.2591 23.0788V24.5453H29.7619V23.0788H31.2591ZM31.2591 27.093V28.5595H29.7619V27.093H31.2591ZM27.6644 31.1073V32.5739H26.1672V31.1073H27.6644ZM31.2591 31.1073V32.5739H29.7619V31.1073H31.2591Z"/>
</mask>
<path fill-rule="evenodd" clip-rule="evenodd" d="M13.0637 11.6498V13.1164H11.5665V11.6498H13.0637ZM13.0637 15.664V17.1306H11.5665V15.664H13.0637ZM13.0637 19.6782V21.1448H11.5665V19.6782H13.0637ZM13.0637 23.6925V25.159H11.5665V23.6925H13.0637ZM16.6584 11.6498V13.1164H15.1612V11.6498H16.6584ZM16.6584 15.664V17.1306H15.1612V15.664H16.6584ZM16.6584 19.6782V21.1448H15.1612V19.6782H16.6584ZM16.6584 23.6925V25.159H15.1612V23.6925H16.6584ZM41.5027 38.879H6.4972V40.5199H41.5028L41.5027 38.879ZM34.8194 37.3989H38.8975V16.4047L34.8194 14.355V37.3989ZM23.9223 37.3989H33.3222V13.8892H25.497H25.4938H23.9223V37.3989ZM20.3808 37.3989V6.94267L24.7484 9.13078V12.409H23.1737C22.7603 12.409 22.4251 12.7404 22.4251 13.1491V37.3988L20.3808 37.3989ZM5.7486 37.3989C5.33519 37.3989 5 37.7302 5 38.1389V41.2599C5 41.6686 5.33519 42 5.7486 42H42.2514C42.6648 42 43 41.6686 43 41.2599V38.1389C43 37.7302 42.6648 37.3989 42.2514 37.3989H40.3948V15.9513C40.3945 15.6821 40.2448 15.4227 39.9854 15.2922L34.4363 12.5031C34.3282 12.4432 34.2036 12.409 34.0709 12.409H26.2458V8.67826H26.244C26.2438 8.40864 26.0936 8.14888 25.8335 8.01912L20.0179 5.10558C19.9053 5.03858 19.7734 5 19.6323 5H8.73509C8.32168 5 7.98649 5.33137 7.98649 5.74007V37.3988L5.7486 37.3989ZM15.1818 37.3989H13.1855V33.877H15.1818V37.3989ZM11.6883 37.3989V33.137C11.6883 32.7283 12.0234 32.3969 12.4369 32.3969H15.9304C16.3438 32.3969 16.679 32.7283 16.679 33.137V37.3989H18.8836V6.48013H9.48369V37.3988L11.6883 37.3989ZM13.0637 27.7067V29.1733H11.5665V27.7067H13.0637ZM16.6584 27.7067V29.1733H15.1612V27.7067H16.6584ZM27.6644 19.0645V20.5311H26.1672V19.0645H27.6644ZM27.6644 23.0788V24.5453H26.1672V23.0788H27.6644ZM27.6644 27.093V28.5595H26.1672V27.093H27.6644ZM31.2591 19.0645V20.5311H29.7619V19.0645H31.2591ZM31.2591 23.0788V24.5453H29.7619V23.0788H31.2591ZM31.2591 27.093V28.5595H29.7619V27.093H31.2591ZM27.6644 31.1073V32.5739H26.1672V31.1073H27.6644ZM31.2591 31.1073V32.5739H29.7619V31.1073H31.2591Z" fill="#0366D6"/>
<path fill-rule="evenodd" clip-rule="evenodd" d="M13.0637 11.6498V13.1164H11.5665V11.6498H13.0637ZM13.0637 15.664V17.1306H11.5665V15.664H13.0637ZM13.0637 19.6782V21.1448H11.5665V19.6782H13.0637ZM13.0637 23.6925V25.159H11.5665V23.6925H13.0637ZM16.6584 11.6498V13.1164H15.1612V11.6498H16.6584ZM16.6584 15.664V17.1306H15.1612V15.664H16.6584ZM16.6584 19.6782V21.1448H15.1612V19.6782H16.6584ZM16.6584 23.6925V25.159H15.1612V23.6925H16.6584ZM41.5027 38.879H6.4972V40.5199H41.5028L41.5027 38.879ZM34.8194 37.3989H38.8975V16.4047L34.8194 14.355V37.3989ZM23.9223 37.3989H33.3222V13.8892H25.497H25.4938H23.9223V37.3989ZM20.3808 37.3989V6.94267L24.7484 9.13078V12.409H23.1737C22.7603 12.409 22.4251 12.7404 22.4251 13.1491V37.3988L20.3808 37.3989ZM5.7486 37.3989C5.33519 37.3989 5 37.7302 5 38.1389V41.2599C5 41.6686 5.33519 42 5.7486 42H42.2514C42.6648 42 43 41.6686 43 41.2599V38.1389C43 37.7302 42.6648 37.3989 42.2514 37.3989H40.3948V15.9513C40.3945 15.6821 40.2448 15.4227 39.9854 15.2922L34.4363 12.5031C34.3282 12.4432 34.2036 12.409 34.0709 12.409H26.2458V8.67826H26.244C26.2438 8.40864 26.0936 8.14888 25.8335 8.01912L20.0179 5.10558C19.9053 5.03858 19.7734 5 19.6323 5H8.73509C8.32168 5 7.98649 5.33137 7.98649 5.74007V37.3988L5.7486 37.3989ZM15.1818 37.3989H13.1855V33.877H15.1818V37.3989ZM11.6883 37.3989V33.137C11.6883 32.7283 12.0234 32.3969 12.4369 32.3969H15.9304C16.3438 32.3969 16.679 32.7283 16.679 33.137V37.3989H18.8836V6.48013H9.48369V37.3988L11.6883 37.3989ZM13.0637 27.7067V29.1733H11.5665V27.7067H13.0637ZM16.6584 27.7067V29.1733H15.1612V27.7067H16.6584ZM27.6644 19.0645V20.5311H26.1672V19.0645H27.6644ZM27.6644 23.0788V24.5453H26.1672V23.0788H27.6644ZM27.6644 27.093V28.5595H26.1672V27.093H27.6644ZM31.2591 19.0645V20.5311H29.7619V19.0645H31.2591ZM31.2591 23.0788V24.5453H29.7619V23.0788H31.2591ZM31.2591 27.093V28.5595H29.7619V27.093H31.2591ZM27.6644 31.1073V32.5739H26.1672V31.1073H27.6644ZM31.2591 31.1073V32.5739H29.7619V31.1073H31.2591Z" stroke="#0366D6" stroke-width="0.6" mask="url(#path-1-outside-1_1_36)"/>
<path d="M63.032 36.24C61.752 36.24 60.56 36.032 59.456 35.616C58.368 35.184 57.416 34.584 56.6 33.816C55.8 33.032 55.176 32.112 54.728 31.056C54.28 30 54.056 28.848 54.056 27.6C54.056 26.352 54.28 25.2 54.728 24.144C55.176 23.088 55.808 22.176 56.624 21.408C57.44 20.624 58.392 20.024 59.48 19.608C60.568 19.176 61.76 18.96 63.056 18.96C64.432 18.96 65.688 19.2 66.824 19.68C67.96 20.144 68.92 20.84 69.704 21.768L67.688 23.664C67.08 23.008 66.4 22.52 65.648 22.2C64.896 21.864 64.08 21.696 63.2 21.696C62.32 21.696 61.512 21.84 60.776 22.128C60.056 22.416 59.424 22.824 58.88 23.352C58.352 23.88 57.936 24.504 57.632 25.224C57.344 25.944 57.2 26.736 57.2 27.6C57.2 28.464 57.344 29.256 57.632 29.976C57.936 30.696 58.352 31.32 58.88 31.848C59.424 32.376 60.056 32.784 60.776 33.072C61.512 33.36 62.32 33.504 63.2 33.504C64.08 33.504 64.896 33.344 65.648 33.024C66.4 32.688 67.08 32.184 67.688 31.512L69.704 33.432C68.92 34.344 67.96 35.04 66.824 35.52C65.688 36 64.424 36.24 63.032 36.24ZM80.2139 36.24C78.9019 36.24 77.6939 36.024 76.5899 35.592C75.4859 35.16 74.5259 34.56 73.7099 33.792C72.8939 33.008 72.2619 32.096 71.8139 31.056C71.3659 30 71.1419 28.848 71.1419 27.6C71.1419 26.352 71.3659 25.208 71.8139 24.168C72.2619 23.112 72.8939 22.2 73.7099 21.432C74.5259 20.648 75.4859 20.04 76.5899 19.608C77.6939 19.176 78.8939 18.96 80.1899 18.96C81.5019 18.96 82.7019 19.176 83.7899 19.608C84.8939 20.04 85.8539 20.648 86.6699 21.432C87.4859 22.2 88.1179 23.112 88.5659 24.168C89.0139 25.208 89.2379 26.352 89.2379 27.6C89.2379 28.848 89.0139 30 88.5659 31.056C88.1179 32.112 87.4859 33.024 86.6699 33.792C85.8539 34.56 84.8939 35.16 83.7899 35.592C82.7019 36.024 81.5099 36.24 80.2139 36.24ZM80.1899 33.504C81.0379 33.504 81.8219 33.36 82.5419 33.072C83.2619 32.784 83.8859 32.376 84.4139 31.848C84.9419 31.304 85.3499 30.68 85.6379 29.976C85.9419 29.256 86.0939 28.464 86.0939 27.6C86.0939 26.736 85.9419 25.952 85.6379 25.248C85.3499 24.528 84.9419 23.904 84.4139 23.376C83.8859 22.832 83.2619 22.416 82.5419 22.128C81.8219 21.84 81.0379 21.696 80.1899 21.696C79.3419 21.696 78.5579 21.84 77.8379 22.128C77.1339 22.416 76.5099 22.832 75.9659 23.376C75.4379 23.904 75.0219 24.528 74.7179 25.248C74.4299 25.952 74.2859 26.736 74.2859 27.6C74.2859 28.448 74.4299 29.232 74.7179 29.952C75.0219 30.672 75.4379 31.304 75.9659 31.848C76.4939 32.376 77.1179 32.784 77.8379 33.072C78.5579 33.36 79.3419 33.504 80.1899 33.504ZM92.5451 36V19.2H95.1131L102.457 31.464H101.113L108.337 19.2H110.905L110.929 36H107.977L107.953 23.832H108.577L102.433 34.08H101.041L94.8011 23.832H95.5211V36H92.5451ZM115.467 36V19.2H122.379C123.867 19.2 125.139 19.44 126.195 19.92C127.267 20.4 128.091 21.088 128.667 21.984C129.243 22.88 129.531 23.944 129.531 25.176C129.531 26.408 129.243 27.472 128.667 28.368C128.091 29.264 127.267 29.952 126.195 30.432C125.139 30.912 123.867 31.152 122.379 31.152H117.195L118.587 29.688V36H115.467ZM118.587 30.024L117.195 28.512H122.235C123.611 28.512 124.643 28.224 125.331 27.648C126.035 27.056 126.387 26.232 126.387 25.176C126.387 24.104 126.035 23.28 125.331 22.704C124.643 22.128 123.611 21.84 122.235 21.84H117.195L118.587 20.304V30.024ZM129.427 36L136.987 19.2H140.059L147.643 36H144.379L137.875 20.856H139.123L132.643 36H129.427ZM132.907 32.112L133.747 29.664H142.819L143.659 32.112H132.907ZM149.779 36V19.2H152.347L162.883 32.136H161.611V19.2H164.707V36H162.139L151.603 23.064H152.875V36H149.779ZM173.337 36V29.352L174.033 31.272L166.737 19.2H170.073L175.929 28.92H174.057L179.961 19.2H183.033L175.737 31.272L176.457 29.352V36H173.337Z" fill="#24292E"/>
</svg>
