<svg width="185" height="47" viewBox="0 0 185 47" fill="none" xmlns="http://www.w3.org/2000/svg">
<path d="M8.03174 12.1373C7.02614 13.3268 6.24129 14.7126 5.76301 16.2333C8.48549 15.6201 12.1032 15.4729 14.1512 15.3135C14.7889 12.6892 16.6039 10.6902 19.6452 10.8251C20.9574 10.8864 22.1101 11.7326 22.9073 13.0325C23.4959 12.4071 24.2808 11.9901 25.3231 11.843C25.3967 11.843 25.5561 11.8307 25.6788 11.8307C23.5204 9.47614 20.4423 7.98001 16.9963 7.98001C16.3709 7.98001 15.7577 8.04132 15.1445 8.13943C15.0219 8.13943 14.8625 8.16396 14.654 8.21301C14.6417 8.21301 14.6172 8.21301 14.6049 8.21301C14.5927 8.21301 14.5804 8.21301 14.5559 8.21301C12.1768 8.78939 10.3863 8.32338 9.36845 6.93762C9.25808 6.79046 8.82886 6.1405 8.69397 5C7.9459 5.77259 7.45536 7.04799 7.87232 8.40923C8.20343 9.4884 8.82886 10.0648 9.50335 10.3959C8.47323 10.4572 7.61479 10.261 6.75635 9.61104C6.25355 9.23087 5.9347 8.81392 5.40737 7.72248C4.91684 8.49507 4.96589 9.35351 5.064 9.79499C5.18663 10.3836 5.49322 11.0459 5.88565 11.426C6.48655 12.0147 7.34499 12.1496 8.04401 12.1373H8.03174Z" fill="#8B0000"/>
<path d="M19.6572 22.2793C21.1811 22.2793 22.4164 20.1655 22.4164 17.5579C22.4164 14.9504 21.1811 12.8365 19.6572 12.8365C18.1333 12.8365 16.8979 14.9504 16.8979 17.5579C16.8979 20.1655 18.1333 22.2793 19.6572 22.2793Z" fill="#8B0000"/>
<path d="M25.7276 21.1389C26.9196 21.1389 27.8859 19.4588 27.8859 17.3863C27.8859 15.3138 26.9196 13.6337 25.7276 13.6337C24.5355 13.6337 23.5692 15.3138 23.5692 17.3863C23.5692 19.4588 24.5355 21.1389 25.7276 21.1389Z" fill="#8B0000"/>
<path fill-rule="evenodd" clip-rule="evenodd" d="M15.0409 42C15.0533 41.4509 15.258 39.7216 17.0086 36.2596C17.7812 34.7512 19.5349 32.6664 20.8471 31.5382C21.5461 30.925 22.2451 30.41 22.9318 29.9317C23.2875 29.7232 23.6186 29.5025 23.9374 29.2695C29.6816 25.7477 34.7523 26.4831 38.959 27.0932L39.0827 27.1111C39.0827 27.1111 40.0883 24.1189 35.9433 22.5737C33.6868 21.7398 31.0257 21.0653 28.806 20.5993C28.4872 21.1756 28.0825 21.6662 27.6042 22.0341C27.5977 22.039 27.5909 22.0441 27.584 22.0492C27.2283 22.3166 26.3849 22.9503 24.8572 22.7699C24.0723 22.6718 23.4714 22.3529 22.9932 21.8869C22.1838 23.2236 21.0188 24.0943 19.6698 24.217C15.9294 24.5358 14.0409 21.3964 13.9182 17.9258C11.1099 18.1956 7.28374 19.9248 5.24802 20.9304L5.25854 38.9668C7.856 39.9735 11.7526 41.2157 15.0409 42Z" fill="#8B0000"/>
<path d="M59.2221 36.24C57.9421 36.24 56.7501 36.032 55.6461 35.616C54.5581 35.184 53.6061 34.584 52.7901 33.816C51.9901 33.032 51.3661 32.112 50.9181 31.056C50.4701 30 50.2461 28.848 50.2461 27.6C50.2461 26.352 50.4701 25.2 50.9181 24.144C51.3661 23.088 51.9981 22.176 52.8141 21.408C53.6301 20.624 54.5821 20.024 55.6701 19.608C56.7581 19.176 57.9501 18.96 59.2461 18.96C60.6221 18.96 61.8781 19.2 63.0141 19.68C64.1501 20.144 65.1101 20.84 65.8941 21.768L63.8781 23.664C63.2701 23.008 62.5901 22.52 61.8381 22.2C61.0861 21.864 60.2701 21.696 59.3901 21.696C58.5101 21.696 57.7021 21.84 56.9661 22.128C56.2461 22.416 55.6141 22.824 55.0701 23.352C54.5421 23.88 54.1261 24.504 53.8221 25.224C53.5341 25.944 53.3901 26.736 53.3901 27.6C53.3901 28.464 53.5341 29.256 53.8221 29.976C54.1261 30.696 54.5421 31.32 55.0701 31.848C55.6141 32.376 56.2461 32.784 56.9661 33.072C57.7021 33.36 58.5101 33.504 59.3901 33.504C60.2701 33.504 61.0861 33.344 61.8381 33.024C62.5901 32.688 63.2701 32.184 63.8781 31.512L65.8941 33.432C65.1101 34.344 64.1501 35.04 63.0141 35.52C61.8781 36 60.6141 36.24 59.2221 36.24ZM76.404 36.24C75.092 36.24 73.884 36.024 72.78 35.592C71.676 35.16 70.716 34.56 69.9 33.792C69.084 33.008 68.452 32.096 68.004 31.056C67.556 30 67.332 28.848 67.332 27.6C67.332 26.352 67.556 25.208 68.004 24.168C68.452 23.112 69.084 22.2 69.9 21.432C70.716 20.648 71.676 20.04 72.78 19.608C73.884 19.176 75.084 18.96 76.38 18.96C77.692 18.96 78.892 19.176 79.98 19.608C81.084 20.04 82.044 20.648 82.86 21.432C83.676 22.2 84.308 23.112 84.756 24.168C85.204 25.208 85.428 26.352 85.428 27.6C85.428 28.848 85.204 30 84.756 31.056C84.308 32.112 83.676 33.024 82.86 33.792C82.044 34.56 81.084 35.16 79.98 35.592C78.892 36.024 77.7 36.24 76.404 36.24ZM76.38 33.504C77.228 33.504 78.012 33.36 78.732 33.072C79.452 32.784 80.076 32.376 80.604 31.848C81.132 31.304 81.54 30.68 81.828 29.976C82.132 29.256 82.284 28.464 82.284 27.6C82.284 26.736 82.132 25.952 81.828 25.248C81.54 24.528 81.132 23.904 80.604 23.376C80.076 22.832 79.452 22.416 78.732 22.128C78.012 21.84 77.228 21.696 76.38 21.696C75.532 21.696 74.748 21.84 74.028 22.128C73.324 22.416 72.7 22.832 72.156 23.376C71.628 23.904 71.212 24.528 70.908 25.248C70.62 25.952 70.476 26.736 70.476 27.6C70.476 28.448 70.62 29.232 70.908 29.952C71.212 30.672 71.628 31.304 72.156 31.848C72.684 32.376 73.308 32.784 74.028 33.072C74.748 33.36 75.532 33.504 76.38 33.504ZM88.7351 36V19.2H91.3031L98.6471 31.464H97.3031L104.527 19.2H107.095L107.119 36H104.167L104.143 23.832H104.767L98.6231 34.08H97.2311L90.9911 23.832H91.7111V36H88.7351ZM111.657 36V19.2H118.569C120.057 19.2 121.329 19.44 122.385 19.92C123.457 20.4 124.281 21.088 124.857 21.984C125.433 22.88 125.721 23.944 125.721 25.176C125.721 26.408 125.433 27.472 124.857 28.368C124.281 29.264 123.457 29.952 122.385 30.432C121.329 30.912 120.057 31.152 118.569 31.152H113.385L114.777 29.688V36H111.657ZM114.777 30.024L113.385 28.512H118.425C119.801 28.512 120.833 28.224 121.521 27.648C122.225 27.056 122.577 26.232 122.577 25.176C122.577 24.104 122.225 23.28 121.521 22.704C120.833 22.128 119.801 21.84 118.425 21.84H113.385L114.777 20.304V30.024ZM125.617 36L133.177 19.2H136.249L143.833 36H140.569L134.065 20.856H135.313L128.833 36H125.617ZM129.097 32.112L129.937 29.664H139.009L139.849 32.112H129.097ZM145.97 36V19.2H148.538L159.074 32.136H157.802V19.2H160.898V36H158.33L147.794 23.064H149.066V36H145.97ZM169.527 36V29.352L170.223 31.272L162.927 19.2H166.263L172.119 28.92H170.247L176.151 19.2H179.223L171.927 31.272L172.647 29.352V36H169.527Z" fill="#333333"/>
</svg>
