<svg width="185" height="38" viewBox="0 0 185 38" fill="none" xmlns="http://www.w3.org/2000/svg">
<path fill-rule="evenodd" clip-rule="evenodd" d="M0.623141 1.24646C1.32787 0.280718 2.44671 0 3.56324 0C6.28155 0 7.65711 1.99638 8.33037 3.656C8.67471 4.50483 8.88958 5.37746 9.03861 6.09327C9.12312 6.49915 9.17828 6.80244 9.2226 7.04617C9.26828 7.29734 9.30246 7.48526 9.3454 7.65703L9.38408 7.81174L9.38836 7.97116C9.40009 8.40795 9.45134 9.04321 9.55323 9.53575C9.5702 9.6178 9.58735 9.68972 9.60409 9.75139C9.96276 10.0167 10.1953 10.4427 10.1953 10.9231C10.1953 11.7274 9.54327 12.3795 8.73892 12.3795C7.69439 12.3795 7.2072 11.5278 7.07416 11.2677C6.88447 10.8968 6.7727 10.4734 6.7008 10.1258C6.56497 9.4692 6.5025 8.72967 6.48158 8.19937C6.43534 7.98688 6.38283 7.70699 6.32926 7.42141C6.28144 7.16653 6.23277 6.90712 6.18695 6.68702C6.05255 6.04152 5.87987 5.364 5.63119 4.75098C5.11839 3.4869 4.48595 2.91282 3.56324 2.91282C3.20587 2.91282 3.03675 2.95777 2.96867 2.98584C2.94615 3.05352 2.89111 3.27709 2.92355 3.82858C2.95376 4.34223 3.03915 4.9247 3.14533 5.64892C3.18303 5.90611 3.22336 6.18118 3.26476 6.47739C3.41588 7.5585 3.56324 8.81987 3.56324 10.1949C3.56324 11.0591 3.50173 12.0948 3.43815 13.1653C3.40502 13.7231 3.37133 14.2904 3.34549 14.8477C3.26702 16.5405 3.2491 18.2834 3.46039 19.9315C3.87981 23.203 5.14548 25.8369 8.43019 27.0313L8.45638 27.0408L8.48218 27.0513C9.23416 27.3578 10.2067 27.3805 11.1037 27.3805C11.9081 27.3805 12.5601 28.0326 12.5601 28.8369C12.5601 29.6413 11.9081 30.2934 11.1037 30.2934L11.0589 30.2934C10.2393 30.2936 8.74071 30.2939 7.40979 29.7596C2.70339 28.0365 1.06118 24.1236 0.571211 20.3019C0.327369 18.3999 0.354969 16.4563 0.435792 14.7129C0.466417 14.0522 0.503289 13.4363 0.537764 12.8604C0.597715 11.8589 0.650417 10.9785 0.650417 10.1949C0.650417 9.02118 0.524697 7.91588 0.379986 6.88064C0.347655 6.64934 0.313206 6.41489 0.278766 6.18049C0.166381 5.41559 0.0540847 4.65131 0.0157507 3.99963C-0.0321974 3.18451 -0.00683989 2.10977 0.623141 1.24646ZM2.92995 3.00778C2.92906 3.00715 2.93437 3.00227 2.94852 2.99503C2.93791 3.00479 2.93084 3.00841 2.92995 3.00778Z" fill="#2E8B57"/>
<path fill-rule="evenodd" clip-rule="evenodd" d="M15.4403 5.69532C13.5334 6.88711 11.6748 9.21581 10.6377 10.9442C10.2239 11.634 9.32929 11.8576 8.63957 11.4438C7.94984 11.03 7.72618 10.1353 8.14002 9.44561C9.28758 7.53302 11.4341 4.76426 13.8965 3.22526C15.1357 2.45074 16.6224 1.88363 18.1862 2.0954C19.8156 2.31604 21.2002 3.3338 22.2752 5.05376L22.2822 5.06498L22.289 5.07633C23.1565 6.52204 22.9738 8.30453 22.5126 9.81291C22.0329 11.3816 21.1493 13.0042 20.1262 14.417C19.105 15.8272 17.8796 17.1186 16.6519 17.9766C16.0395 18.4046 15.3686 18.7657 14.6761 18.9508C13.9778 19.1374 13.1561 19.1684 12.3786 18.7796C11.611 18.3958 10.9766 17.8744 10.5792 17.1725C10.1746 16.4577 10.0982 15.7015 10.1946 15.0079C10.3722 13.73 11.167 12.4881 11.8422 11.5366C13.0399 9.84875 14.4973 8.12419 14.9129 7.70863C15.4817 7.13987 16.4038 7.13987 16.9726 7.70863C17.5413 8.2774 17.5413 9.19954 16.9726 9.76831C16.7151 10.0258 15.3635 11.6076 14.2177 13.2224C13.5289 14.193 13.1487 14.9122 13.0797 15.4088C13.0528 15.6024 13.0853 15.6867 13.1141 15.7375C13.1498 15.8007 13.2717 15.9677 13.6711 16.1692C13.6939 16.173 13.7692 16.1781 13.924 16.1368C14.1786 16.0687 14.5375 15.9007 14.9832 15.5891C15.8719 14.968 16.8766 13.9382 17.767 12.7086C18.6554 11.4817 19.3648 10.146 19.7271 8.96114C20.1047 7.72613 20.0177 6.96228 19.7968 6.5842C19.0543 5.40209 18.3485 5.05678 17.7954 4.98188C17.1747 4.89782 16.3857 5.10443 15.4403 5.69532ZM13.6632 16.1673C13.6633 16.1672 13.6651 16.1675 13.6683 16.1687C13.6648 16.168 13.6632 16.1674 13.6632 16.1673Z" fill="#2E8B57"/>
<path fill-rule="evenodd" clip-rule="evenodd" d="M26.0486 8.23584C25.8464 7.65518 25.4027 6.88703 24.6413 6.33766C23.7872 5.72137 22.632 5.45901 21.3078 5.9004C20.5448 6.15476 20.1324 6.97955 20.3867 7.74263C20.6411 8.50571 21.4659 8.9181 22.229 8.66374C22.4686 8.58385 22.619 8.58751 22.7026 8.60052C22.7874 8.61374 22.8622 8.64587 22.937 8.69982C23.1159 8.82887 23.2519 9.05604 23.2996 9.19904L23.3131 9.23964L23.329 9.27938C23.5116 9.736 23.5231 10.5317 23.1749 11.6685C22.8394 12.7639 22.2289 13.9785 21.4668 15.1216C20.7053 16.2639 19.8329 17.274 19.0172 17.9802C18.6095 18.3332 18.2429 18.5869 17.9365 18.7461C17.618 18.9116 17.445 18.9334 17.399 18.9334C17.2474 18.9334 17.1807 18.9072 17.164 18.8992C17.1595 18.8926 17.1518 18.8791 17.142 18.8543C17.072 18.6766 17.0087 18.1585 17.3251 17.2092C17.5794 16.4461 17.1669 15.6214 16.4039 15.367C15.6408 15.1127 14.816 15.5252 14.5617 16.2883C14.15 17.5236 13.9998 18.826 14.4322 19.9227C14.6596 20.4993 15.0467 21.0068 15.603 21.3588C16.151 21.7056 16.7749 21.8462 17.399 21.8462C18.0812 21.8462 18.7275 21.6176 19.2795 21.3308C19.8435 21.0378 20.3986 20.6372 20.9239 20.1823C21.9743 19.2728 23.0135 18.0528 23.8904 16.7374C24.7668 15.4228 25.5218 13.9521 25.96 12.5216C26.3815 11.1454 26.5754 9.5908 26.0486 8.23584ZM17.1605 18.8974C17.1606 18.8974 17.1606 18.8974 17.1606 18.8974L17.1605 18.8974ZM17.1651 18.9007C17.1675 18.9027 17.1686 18.9042 17.1685 18.9044C17.1685 18.9046 17.1673 18.9036 17.1651 18.9007Z" fill="#2E8B57"/>
<path fill-rule="evenodd" clip-rule="evenodd" d="M37.3352 8.74982C37.0053 8.7894 36.7917 8.91419 36.7124 8.99356C36.015 9.69091 34.5581 10.7392 33.1535 11.6973C31.7019 12.6877 30.1559 13.6815 29.1724 14.2962C28.4903 14.7225 27.5917 14.5151 27.1654 13.8331C26.7391 13.151 26.9465 12.2524 27.6286 11.8261C28.5869 11.2271 30.0994 10.2548 31.512 9.29112C32.9717 8.29529 34.1849 7.40165 34.6527 6.93388C35.3015 6.28504 36.1802 5.9547 36.9882 5.85774C37.7986 5.76049 38.7328 5.8744 39.5267 6.35075C40.3829 6.8645 40.9888 7.7588 41.0294 8.93757C41.067 10.0264 40.6189 11.195 39.8071 12.4126C36.7237 17.0378 32.1374 20.1031 30.5082 20.9177C30.0957 21.1239 29.5364 21.6192 28.6446 22.7787C27.7717 23.9134 26.7114 25.5024 25.243 27.7049C23.5909 30.1831 20.9171 32.061 18.1756 32.7071C15.387 33.3644 12.3214 32.7583 10.4399 29.9361C9.99374 29.2668 10.1746 28.3626 10.8439 27.9164C11.5131 27.4702 12.4174 27.6511 12.8635 28.3204C13.8949 29.8674 15.5626 30.3304 17.5074 29.872C19.4992 29.4026 21.5587 27.9803 22.8194 26.0892L22.8521 26.0402C24.2808 23.897 25.3954 22.2252 26.3358 21.0027C27.2645 19.7954 28.1616 18.8343 29.2055 18.3124C30.4892 17.6705 34.6413 14.9102 37.3835 10.7969C38.0282 9.82986 38.1263 9.26901 38.1183 9.03795C38.1135 8.89967 38.0833 8.88158 38.0313 8.85041L38.0281 8.84848C37.9117 8.77868 37.6626 8.71053 37.3352 8.74982Z" fill="#2E8B57"/>
<path fill-rule="evenodd" clip-rule="evenodd" d="M3.56326 24.0308C4.36761 24.0308 5.01967 24.6828 5.01967 25.4872C5.01967 26.355 4.68731 27.4224 4.38406 28.2472C4.05913 29.131 3.67241 29.982 3.4095 30.5078C3.04978 31.2272 2.17496 31.5188 1.45552 31.1591C0.736083 30.7994 0.444474 29.9245 0.804192 29.2051C1.02676 28.76 1.36824 28.0089 1.65015 27.2421C1.95374 26.4163 2.10685 25.7845 2.10685 25.4872C2.10685 24.6828 2.7589 24.0308 3.56326 24.0308Z" fill="#2E8B57"/>
<path fill-rule="evenodd" clip-rule="evenodd" d="M16.5954 31.3897C16.9551 32.1092 16.6635 32.984 15.9441 33.3437C14.6942 33.9687 12.835 35.5263 11.9826 36.5919C11.4801 37.22 10.5636 37.3218 9.93549 36.8194C9.3074 36.3169 9.20556 35.4004 9.70804 34.7723C10.7975 33.4105 12.9786 31.5698 14.6414 30.7384C15.3609 30.3787 16.2357 30.6703 16.5954 31.3897Z" fill="#2E8B57"/>
<path fill-rule="evenodd" clip-rule="evenodd" d="M24.0086 9.79477C24.2296 9.02137 25.0357 8.57353 25.8091 8.79451C26.9982 9.13423 28.5192 10.1083 29.1098 11.977C29.7037 13.8563 29.2201 16.2064 27.349 19.013C26.2013 20.7347 25.0974 21.9628 24.0441 22.773C22.9942 23.5806 21.9157 24.0308 20.8577 24.0308C18.5417 24.0308 17.3987 22.0265 17.3987 20.3898C17.3987 19.5854 18.0508 18.9334 18.8552 18.9334C19.6595 18.9334 20.3116 19.5854 20.3116 20.3898C20.3116 20.9376 20.6251 21.118 20.8577 21.118C21.0741 21.118 21.543 21.022 22.2681 20.4642C22.9899 19.909 23.8886 18.9525 24.9254 17.3973C26.5497 14.9608 26.5516 13.5485 26.3323 12.8548C26.1098 12.1505 25.519 11.741 25.0089 11.5953C24.2355 11.3743 23.7877 10.5682 24.0086 9.79477Z" fill="#2E8B57"/>
<path d="M61.0876 31.4745C59.7596 31.4745 58.5276 31.2665 57.3916 30.8505C56.2716 30.4185 55.2956 29.8105 54.4636 29.0265C53.6476 28.2425 53.0076 27.3225 52.5436 26.2665C52.0796 25.1945 51.8476 24.0185 51.8476 22.7385C51.8476 21.4585 52.0796 20.2905 52.5436 19.2345C53.0076 18.1625 53.6476 17.2345 54.4636 16.4505C55.2956 15.6665 56.2716 15.0665 57.3916 14.6505C58.5276 14.2185 59.7596 14.0025 61.0876 14.0025C62.6396 14.0025 64.0236 14.2745 65.2396 14.8185C66.4716 15.3625 67.4956 16.1465 68.3116 17.1705L65.2876 19.9065C64.7436 19.2665 64.1436 18.7785 63.4876 18.4425C62.8476 18.1065 62.1276 17.9385 61.3276 17.9385C60.6396 17.9385 60.0076 18.0505 59.4316 18.2745C58.8556 18.4985 58.3596 18.8265 57.9436 19.2585C57.5436 19.6745 57.2236 20.1785 56.9836 20.7705C56.7596 21.3625 56.6476 22.0185 56.6476 22.7385C56.6476 23.4585 56.7596 24.1145 56.9836 24.7065C57.2236 25.2985 57.5436 25.8105 57.9436 26.2425C58.3596 26.6585 58.8556 26.9785 59.4316 27.2025C60.0076 27.4265 60.6396 27.5385 61.3276 27.5385C62.1276 27.5385 62.8476 27.3705 63.4876 27.0345C64.1436 26.6985 64.7436 26.2105 65.2876 25.5705L68.3116 28.3065C67.4956 29.3145 66.4716 30.0985 65.2396 30.6585C64.0236 31.2025 62.6396 31.4745 61.0876 31.4745ZM78.5508 31.4745C77.2068 31.4745 75.9668 31.2585 74.8308 30.8265C73.6948 30.3945 72.7028 29.7865 71.8548 29.0025C71.0228 28.2025 70.3748 27.2745 69.9108 26.2185C69.4468 25.1625 69.2148 24.0025 69.2148 22.7385C69.2148 21.4745 69.4468 20.3145 69.9108 19.2585C70.3748 18.2025 71.0228 17.2825 71.8548 16.4985C72.7028 15.6985 73.6948 15.0825 74.8308 14.6505C75.9668 14.2185 77.2068 14.0025 78.5508 14.0025C79.9108 14.0025 81.1508 14.2185 82.2708 14.6505C83.4068 15.0825 84.3908 15.6985 85.2228 16.4985C86.0548 17.2825 86.7028 18.2025 87.1668 19.2585C87.6468 20.3145 87.8868 21.4745 87.8868 22.7385C87.8868 24.0025 87.6468 25.1705 87.1668 26.2425C86.7028 27.2985 86.0548 28.2185 85.2228 29.0025C84.3908 29.7865 83.4068 30.3945 82.2708 30.8265C81.1508 31.2585 79.9108 31.4745 78.5508 31.4745ZM78.5508 27.5385C79.1908 27.5385 79.7828 27.4265 80.3268 27.2025C80.8868 26.9785 81.3668 26.6585 81.7668 26.2425C82.1828 25.8105 82.5028 25.2985 82.7268 24.7065C82.9668 24.1145 83.0868 23.4585 83.0868 22.7385C83.0868 22.0025 82.9668 21.3465 82.7268 20.7705C82.5028 20.1785 82.1828 19.6745 81.7668 19.2585C81.3668 18.8265 80.8868 18.4985 80.3268 18.2745C79.7828 18.0505 79.1908 17.9385 78.5508 17.9385C77.9108 17.9385 77.3108 18.0505 76.7508 18.2745C76.2068 18.4985 75.7268 18.8265 75.3108 19.2585C74.9108 19.6745 74.5908 20.1785 74.3508 20.7705C74.1268 21.3465 74.0148 22.0025 74.0148 22.7385C74.0148 23.4585 74.1268 24.1145 74.3508 24.7065C74.5908 25.2985 74.9108 25.8105 75.3108 26.2425C75.7268 26.6585 76.2068 26.9785 76.7508 27.2025C77.3108 27.4265 77.9108 27.5385 78.5508 27.5385ZM90.3756 31.1385V14.3385H94.2876L101.248 25.7625H99.1836L105.952 14.3385H109.864L109.912 31.1385H105.544L105.496 20.9865H106.24L101.176 29.4825H99.0636L93.8556 20.9865H94.7676V31.1385H90.3756ZM113.274 31.1385V14.3385H120.954C122.49 14.3385 123.81 14.5865 124.914 15.0825C126.034 15.5785 126.898 16.2985 127.506 17.2425C128.114 18.1705 128.418 19.2745 128.418 20.5545C128.418 21.8185 128.114 22.9145 127.506 23.8425C126.898 24.7705 126.034 25.4905 124.914 26.0025C123.81 26.4985 122.49 26.7465 120.954 26.7465H115.914L118.026 24.6825V31.1385H113.274ZM118.026 25.1865L115.914 23.0025H120.666C121.658 23.0025 122.394 22.7865 122.874 22.3545C123.37 21.9225 123.618 21.3225 123.618 20.5545C123.618 19.7705 123.37 19.1625 122.874 18.7305C122.394 18.2985 121.658 18.0825 120.666 18.0825H115.914L118.026 15.8985V25.1865ZM127.875 31.1385L135.291 14.3385H139.971L147.411 31.1385H142.467L136.659 16.6665H138.531L132.723 31.1385H127.875ZM131.931 27.8745L133.155 24.3705H141.363L142.587 27.8745H131.931ZM148.758 31.1385V14.3385H152.67L161.934 25.5225H160.086V14.3385H164.742V31.1385H160.83L151.566 19.9545H153.414V31.1385H148.758ZM172.342 31.1385V24.0345L173.446 26.8905L165.934 14.3385H170.95L176.374 23.4345H173.47L178.918 14.3385H183.526L176.038 26.8905L177.094 24.0345V31.1385H172.342Z" fill="black"/>
</svg>
