<svg width="182" height="39" viewBox="0 0 182 39" fill="none" xmlns="http://www.w3.org/2000/svg">
<mask id="path-1-outside-1_1_36" maskUnits="userSpaceOnUse" x="0" y="0" width="40" height="39" fill="black">
<rect fill="white" width="40" height="39"/>
<path fill-rule="evenodd" clip-rule="evenodd" d="M9.0637 7.64979V9.11638H7.56649V7.64979H9.0637ZM9.0637 11.664V13.1306H7.56649V11.664H9.0637ZM9.0637 15.6782V17.1448H7.56649V15.6782H9.0637ZM9.0637 19.6925V21.159H7.56649V19.6925H9.0637ZM12.6584 7.64979V9.11638H11.1612V7.64979H12.6584ZM12.6584 11.664V13.1306H11.1612V11.664H12.6584ZM12.6584 15.6782V17.1448H11.1612V15.6782H12.6584ZM12.6584 19.6925V21.159H11.1612V19.6925H12.6584ZM37.5027 34.879H2.4972V36.5199H37.5028L37.5027 34.879ZM30.8194 33.3989H34.8975V12.4047L30.8194 10.355V33.3989ZM19.9223 33.3989H29.3222V9.88924H21.497H21.4938H19.9223V33.3989ZM16.3808 33.3989V2.94267L20.7484 5.13078V8.40903H19.1737C18.7603 8.40903 18.4251 8.7404 18.4251 9.1491V33.3988L16.3808 33.3989ZM1.7486 33.3989C1.33519 33.3989 1 33.7302 1 34.1389V37.2599C1 37.6686 1.33519 38 1.7486 38H38.2514C38.6648 38 39 37.6686 39 37.2599V34.1389C39 33.7302 38.6648 33.3989 38.2514 33.3989H36.3948V11.9513C36.3945 11.6821 36.2448 11.4227 35.9854 11.2922L30.4363 8.50311C30.3282 8.44323 30.2036 8.40903 30.0709 8.40903H22.2458V4.67826H22.244C22.2438 4.40864 22.0936 4.14888 21.8335 4.01912L16.0179 1.10558C15.9053 1.03858 15.7734 1 15.6323 1H4.73509C4.32168 1 3.98649 1.33137 3.98649 1.74007V33.3988L1.7486 33.3989ZM11.1818 33.3989H9.18545V29.877H11.1818V33.3989ZM7.68825 33.3989V29.137C7.68825 28.7283 8.02344 28.3969 8.43685 28.3969H11.9304C12.3438 28.3969 12.679 28.7283 12.679 29.137V33.3989H14.8836V2.48013H5.48369V33.3988L7.68825 33.3989ZM9.0637 23.7067V25.1733H7.56649V23.7067H9.0637ZM12.6584 23.7067V25.1733H11.1612V23.7067H12.6584ZM23.6644 15.0645V16.5311H22.1672V15.0645H23.6644ZM23.6644 19.0788V20.5453H22.1672V19.0788H23.6644ZM23.6644 23.093V24.5595H22.1672V23.093H23.6644ZM27.2591 15.0645V16.5311H25.7619V15.0645H27.2591ZM27.2591 19.0788V20.5453H25.7619V19.0788H27.2591ZM27.2591 23.093V24.5595H25.7619V23.093H27.2591ZM23.6644 27.1073V28.5739H22.1672V27.1073H23.6644ZM27.2591 27.1073V28.5739H25.7619V27.1073H27.2591Z"/>
</mask>
<path fill-rule="evenodd" clip-rule="evenodd" d="M9.0637 7.64979V9.11638H7.56649V7.64979H9.0637ZM9.0637 11.664V13.1306H7.56649V11.664H9.0637ZM9.0637 15.6782V17.1448H7.56649V15.6782H9.0637ZM9.0637 19.6925V21.159H7.56649V19.6925H9.0637ZM12.6584 7.64979V9.11638H11.1612V7.64979H12.6584ZM12.6584 11.664V13.1306H11.1612V11.664H12.6584ZM12.6584 15.6782V17.1448H11.1612V15.6782H12.6584ZM12.6584 19.6925V21.159H11.1612V19.6925H12.6584ZM37.5027 34.879H2.4972V36.5199H37.5028L37.5027 34.879ZM30.8194 33.3989H34.8975V12.4047L30.8194 10.355V33.3989ZM19.9223 33.3989H29.3222V9.88924H21.497H21.4938H19.9223V33.3989ZM16.3808 33.3989V2.94267L20.7484 5.13078V8.40903H19.1737C18.7603 8.40903 18.4251 8.7404 18.4251 9.1491V33.3988L16.3808 33.3989ZM1.7486 33.3989C1.33519 33.3989 1 33.7302 1 34.1389V37.2599C1 37.6686 1.33519 38 1.7486 38H38.2514C38.6648 38 39 37.6686 39 37.2599V34.1389C39 33.7302 38.6648 33.3989 38.2514 33.3989H36.3948V11.9513C36.3945 11.6821 36.2448 11.4227 35.9854 11.2922L30.4363 8.50311C30.3282 8.44323 30.2036 8.40903 30.0709 8.40903H22.2458V4.67826H22.244C22.2438 4.40864 22.0936 4.14888 21.8335 4.01912L16.0179 1.10558C15.9053 1.03858 15.7734 1 15.6323 1H4.73509C4.32168 1 3.98649 1.33137 3.98649 1.74007V33.3988L1.7486 33.3989ZM11.1818 33.3989H9.18545V29.877H11.1818V33.3989ZM7.68825 33.3989V29.137C7.68825 28.7283 8.02344 28.3969 8.43685 28.3969H11.9304C12.3438 28.3969 12.679 28.7283 12.679 29.137V33.3989H14.8836V2.48013H5.48369V33.3988L7.68825 33.3989ZM9.0637 23.7067V25.1733H7.56649V23.7067H9.0637ZM12.6584 23.7067V25.1733H11.1612V23.7067H12.6584ZM23.6644 15.0645V16.5311H22.1672V15.0645H23.6644ZM23.6644 19.0788V20.5453H22.1672V19.0788H23.6644ZM23.6644 23.093V24.5595H22.1672V23.093H23.6644ZM27.2591 15.0645V16.5311H25.7619V15.0645H27.2591ZM27.2591 19.0788V20.5453H25.7619V19.0788H27.2591ZM27.2591 23.093V24.5595H25.7619V23.093H27.2591ZM23.6644 27.1073V28.5739H22.1672V27.1073H23.6644ZM27.2591 27.1073V28.5739H25.7619V27.1073H27.2591Z" fill="#0366D6"/>
<path fill-rule="evenodd" clip-rule="evenodd" d="M9.0637 7.64979V9.11638H7.56649V7.64979H9.0637ZM9.0637 11.664V13.1306H7.56649V11.664H9.0637ZM9.0637 15.6782V17.1448H7.56649V15.6782H9.0637ZM9.0637 19.6925V21.159H7.56649V19.6925H9.0637ZM12.6584 7.64979V9.11638H11.1612V7.64979H12.6584ZM12.6584 11.664V13.1306H11.1612V11.664H12.6584ZM12.6584 15.6782V17.1448H11.1612V15.6782H12.6584ZM12.6584 19.6925V21.159H11.1612V19.6925H12.6584ZM37.5027 34.879H2.4972V36.5199H37.5028L37.5027 34.879ZM30.8194 33.3989H34.8975V12.4047L30.8194 10.355V33.3989ZM19.9223 33.3989H29.3222V9.88924H21.497H21.4938H19.9223V33.3989ZM16.3808 33.3989V2.94267L20.7484 5.13078V8.40903H19.1737C18.7603 8.40903 18.4251 8.7404 18.4251 9.1491V33.3988L16.3808 33.3989ZM1.7486 33.3989C1.33519 33.3989 1 33.7302 1 34.1389V37.2599C1 37.6686 1.33519 38 1.7486 38H38.2514C38.6648 38 39 37.6686 39 37.2599V34.1389C39 33.7302 38.6648 33.3989 38.2514 33.3989H36.3948V11.9513C36.3945 11.6821 36.2448 11.4227 35.9854 11.2922L30.4363 8.50311C30.3282 8.44323 30.2036 8.40903 30.0709 8.40903H22.2458V4.67826H22.244C22.2438 4.40864 22.0936 4.14888 21.8335 4.01912L16.0179 1.10558C15.9053 1.03858 15.7734 1 15.6323 1H4.73509C4.32168 1 3.98649 1.33137 3.98649 1.74007V33.3988L1.7486 33.3989ZM11.1818 33.3989H9.18545V29.877H11.1818V33.3989ZM7.68825 33.3989V29.137C7.68825 28.7283 8.02344 28.3969 8.43685 28.3969H11.9304C12.3438 28.3969 12.679 28.7283 12.679 29.137V33.3989H14.8836V2.48013H5.48369V33.3988L7.68825 33.3989ZM9.0637 23.7067V25.1733H7.56649V23.7067H9.0637ZM12.6584 23.7067V25.1733H11.1612V23.7067H12.6584ZM23.6644 15.0645V16.5311H22.1672V15.0645H23.6644ZM23.6644 19.0788V20.5453H22.1672V19.0788H23.6644ZM23.6644 23.093V24.5595H22.1672V23.093H23.6644ZM27.2591 15.0645V16.5311H25.7619V15.0645H27.2591ZM27.2591 19.0788V20.5453H25.7619V19.0788H27.2591ZM27.2591 23.093V24.5595H25.7619V23.093H27.2591ZM23.6644 27.1073V28.5739H22.1672V27.1073H23.6644ZM27.2591 27.1073V28.5739H25.7619V27.1073H27.2591Z" stroke="#0366D6" stroke-width="0.6" mask="url(#path-1-outside-1_1_36)"/>
<path d="M59.056 32.336C57.728 32.336 56.496 32.128 55.36 31.712C54.24 31.28 53.264 30.672 52.432 29.888C51.616 29.104 50.976 28.184 50.512 27.128C50.048 26.056 49.816 24.88 49.816 23.6C49.816 22.32 50.048 21.152 50.512 20.096C50.976 19.024 51.616 18.096 52.432 17.312C53.264 16.528 54.24 15.928 55.36 15.512C56.496 15.08 57.728 14.864 59.056 14.864C60.608 14.864 61.992 15.136 63.208 15.68C64.44 16.224 65.464 17.008 66.28 18.032L63.256 20.768C62.712 20.128 62.112 19.64 61.456 19.304C60.816 18.968 60.096 18.8 59.296 18.8C58.608 18.8 57.976 18.912 57.4 19.136C56.824 19.36 56.328 19.688 55.912 20.12C55.512 20.536 55.192 21.04 54.952 21.632C54.728 22.224 54.616 22.88 54.616 23.6C54.616 24.32 54.728 24.976 54.952 25.568C55.192 26.16 55.512 26.672 55.912 27.104C56.328 27.52 56.824 27.84 57.4 28.064C57.976 28.288 58.608 28.4 59.296 28.4C60.096 28.4 60.816 28.232 61.456 27.896C62.112 27.56 62.712 27.072 63.256 26.432L66.28 29.168C65.464 30.176 64.44 30.96 63.208 31.52C61.992 32.064 60.608 32.336 59.056 32.336ZM76.5192 32.336C75.1752 32.336 73.9352 32.12 72.7992 31.688C71.6632 31.256 70.6712 30.648 69.8232 29.864C68.9912 29.064 68.3432 28.136 67.8792 27.08C67.4152 26.024 67.1832 24.864 67.1832 23.6C67.1832 22.336 67.4152 21.176 67.8792 20.12C68.3432 19.064 68.9912 18.144 69.8232 17.36C70.6712 16.56 71.6632 15.944 72.7992 15.512C73.9352 15.08 75.1752 14.864 76.5192 14.864C77.8792 14.864 79.1192 15.08 80.2392 15.512C81.3752 15.944 82.3592 16.56 83.1912 17.36C84.0232 18.144 84.6712 19.064 85.1352 20.12C85.6152 21.176 85.8552 22.336 85.8552 23.6C85.8552 24.864 85.6152 26.032 85.1352 27.104C84.6712 28.16 84.0232 29.08 83.1912 29.864C82.3592 30.648 81.3752 31.256 80.2392 31.688C79.1192 32.12 77.8792 32.336 76.5192 32.336ZM76.5192 28.4C77.1592 28.4 77.7512 28.288 78.2952 28.064C78.8552 27.84 79.3352 27.52 79.7352 27.104C80.1512 26.672 80.4712 26.16 80.6952 25.568C80.9352 24.976 81.0552 24.32 81.0552 23.6C81.0552 22.864 80.9352 22.208 80.6952 21.632C80.4712 21.04 80.1512 20.536 79.7352 20.12C79.3352 19.688 78.8552 19.36 78.2952 19.136C77.7512 18.912 77.1592 18.8 76.5192 18.8C75.8792 18.8 75.2792 18.912 74.7192 19.136C74.1752 19.36 73.6952 19.688 73.2792 20.12C72.8792 20.536 72.5592 21.04 72.3192 21.632C72.0952 22.208 71.9832 22.864 71.9832 23.6C71.9832 24.32 72.0952 24.976 72.3192 25.568C72.5592 26.16 72.8792 26.672 73.2792 27.104C73.6952 27.52 74.1752 27.84 74.7192 28.064C75.2792 28.288 75.8792 28.4 76.5192 28.4ZM88.3441 32V15.2H92.2561L99.2161 26.624H97.1521L103.92 15.2H107.832L107.88 32H103.512L103.464 21.848H104.208L99.1441 30.344H97.0321L91.8241 21.848H92.7361V32H88.3441ZM111.243 32V15.2H118.923C120.459 15.2 121.779 15.448 122.883 15.944C124.003 16.44 124.867 17.16 125.475 18.104C126.083 19.032 126.387 20.136 126.387 21.416C126.387 22.68 126.083 23.776 125.475 24.704C124.867 25.632 124.003 26.352 122.883 26.864C121.779 27.36 120.459 27.608 118.923 27.608H113.883L115.995 25.544V32H111.243ZM115.995 26.048L113.883 23.864H118.635C119.627 23.864 120.363 23.648 120.843 23.216C121.339 22.784 121.587 22.184 121.587 21.416C121.587 20.632 121.339 20.024 120.843 19.592C120.363 19.16 119.627 18.944 118.635 18.944H113.883L115.995 16.76V26.048ZM125.844 32L133.26 15.2H137.94L145.38 32H140.436L134.628 17.528H136.5L130.692 32H125.844ZM129.9 28.736L131.124 25.232H139.332L140.556 28.736H129.9ZM146.727 32V15.2H150.639L159.903 26.384H158.055V15.2H162.711V32H158.799L149.535 20.816H151.383V32H146.727ZM170.311 32V24.896L171.415 27.752L163.903 15.2H168.919L174.343 24.296H171.439L176.887 15.2H181.495L174.007 27.752L175.063 24.896V32H170.311Z" fill="black"/>
</svg>
