<svg width="156" height="37" viewBox="0 0 156 37" fill="none" xmlns="http://www.w3.org/2000/svg">
<path d="M3.03174 7.1373C2.02614 8.32685 1.24129 9.71261 0.763013 11.2333C3.48549 10.6201 7.10319 10.4729 9.15118 10.3135C9.78888 7.68915 11.6039 5.69022 14.6452 5.82512C15.9574 5.88643 17.1101 6.73261 17.9073 8.03253C18.4959 7.40709 19.2808 6.99014 20.3231 6.84298C20.3967 6.84298 20.5561 6.83071 20.6788 6.83071C18.5204 4.47614 15.4423 2.98001 11.9963 2.98001C11.3709 2.98001 10.7577 3.04132 10.1445 3.13943C10.0219 3.13943 9.86246 3.16396 9.65398 3.21301C9.64172 3.21301 9.61719 3.21301 9.60493 3.21301C9.59266 3.21301 9.5804 3.21301 9.55587 3.21301C7.17677 3.78939 5.38632 3.32338 4.36845 1.93762C4.25808 1.79046 3.82886 1.1405 3.69397 0C2.9459 0.772594 2.45536 2.04799 2.87232 3.40923C3.20343 4.4884 3.82886 5.06478 4.50335 5.3959C3.47323 5.45721 2.61479 5.261 1.75635 4.61104C1.25355 4.23087 0.934701 3.81392 0.407375 2.72248C-0.0831615 3.49507 -0.0341079 4.35351 0.0639993 4.79499C0.186633 5.38363 0.493218 6.04586 0.885647 6.42602C1.48655 7.01466 2.34499 7.14956 3.04401 7.1373H3.03174Z" fill="#8B0000"/>
<path d="M14.6572 17.2793C16.1811 17.2793 17.4164 15.1655 17.4164 12.5579C17.4164 9.95036 16.1811 7.83651 14.6572 7.83651C13.1333 7.83651 11.8979 9.95036 11.8979 12.5579C11.8979 15.1655 13.1333 17.2793 14.6572 17.2793Z" fill="#8B0000"/>
<path d="M20.7276 16.1389C21.9196 16.1389 22.8859 14.4588 22.8859 12.3863C22.8859 10.3138 21.9196 8.63371 20.7276 8.63371C19.5355 8.63371 18.5692 10.3138 18.5692 12.3863C18.5692 14.4588 19.5355 16.1389 20.7276 16.1389Z" fill="#8B0000"/>
<path fill-rule="evenodd" clip-rule="evenodd" d="M10.0409 37C10.0533 36.4509 10.258 34.7216 12.0086 31.2596C12.7812 29.7512 14.5349 27.6664 15.8471 26.5382C16.5461 25.925 17.2451 25.41 17.9318 24.9317C18.2875 24.7232 18.6186 24.5025 18.9374 24.2695C24.6816 20.7477 29.7523 21.4831 33.959 22.0932L34.0827 22.1111C34.0827 22.1111 35.0883 19.1189 30.9433 17.5737C28.6868 16.7398 26.0257 16.0653 23.806 15.5993C23.4872 16.1756 23.0825 16.6662 22.6042 17.0341C22.5977 17.039 22.5909 17.0441 22.584 17.0492C22.2283 17.3166 21.3849 17.9503 19.8572 17.7699C19.0723 17.6718 18.4714 17.3529 17.9932 16.8869C17.1838 18.2236 16.0188 19.0943 14.6698 19.217C10.9294 19.5358 9.04088 16.3964 8.91824 12.9258C6.10992 13.1956 2.28374 14.9248 0.248017 15.9304L0.258545 33.9668C2.856 34.9735 6.7526 36.2157 10.0409 37Z" fill="#8B0000"/>
<path d="M52.5701 25.78C51.4634 25.78 50.4367 25.6067 49.4901 25.26C48.5567 24.9 47.7434 24.3933 47.0501 23.74C46.3701 23.0867 45.8367 22.32 45.4501 21.44C45.0634 20.5467 44.8701 19.5667 44.8701 18.5C44.8701 17.4333 45.0634 16.46 45.4501 15.58C45.8367 14.6867 46.3701 13.9133 47.0501 13.26C47.7434 12.6067 48.5567 12.1067 49.4901 11.76C50.4367 11.4 51.4634 11.22 52.5701 11.22C53.8634 11.22 55.0167 11.4467 56.0301 11.9C57.0567 12.3533 57.9101 13.0067 58.5901 13.86L56.0701 16.14C55.6167 15.6067 55.1167 15.2 54.5701 14.92C54.0367 14.64 53.4367 14.5 52.7701 14.5C52.1967 14.5 51.6701 14.5933 51.1901 14.78C50.7101 14.9667 50.2967 15.24 49.9501 15.6C49.6167 15.9467 49.3501 16.3667 49.1501 16.86C48.9634 17.3533 48.8701 17.9 48.8701 18.5C48.8701 19.1 48.9634 19.6467 49.1501 20.14C49.3501 20.6333 49.6167 21.06 49.9501 21.42C50.2967 21.7667 50.7101 22.0333 51.1901 22.22C51.6701 22.4067 52.1967 22.5 52.7701 22.5C53.4367 22.5 54.0367 22.36 54.5701 22.08C55.1167 21.8 55.6167 21.3933 56.0701 20.86L58.5901 23.14C57.9101 23.98 57.0567 24.6333 56.0301 25.1C55.0167 25.5533 53.8634 25.78 52.5701 25.78ZM67.1227 25.78C66.0027 25.78 64.9694 25.6 64.0227 25.24C63.0761 24.88 62.2494 24.3733 61.5427 23.72C60.8494 23.0533 60.3094 22.28 59.9227 21.4C59.5361 20.52 59.3427 19.5533 59.3427 18.5C59.3427 17.4467 59.5361 16.48 59.9227 15.6C60.3094 14.72 60.8494 13.9533 61.5427 13.3C62.2494 12.6333 63.0761 12.12 64.0227 11.76C64.9694 11.4 66.0027 11.22 67.1227 11.22C68.2561 11.22 69.2894 11.4 70.2227 11.76C71.1694 12.12 71.9894 12.6333 72.6827 13.3C73.3761 13.9533 73.9161 14.72 74.3027 15.6C74.7027 16.48 74.9027 17.4467 74.9027 18.5C74.9027 19.5533 74.7027 20.5267 74.3027 21.42C73.9161 22.3 73.3761 23.0667 72.6827 23.72C71.9894 24.3733 71.1694 24.88 70.2227 25.24C69.2894 25.6 68.2561 25.78 67.1227 25.78ZM67.1227 22.5C67.6561 22.5 68.1494 22.4067 68.6027 22.22C69.0694 22.0333 69.4694 21.7667 69.8027 21.42C70.1494 21.06 70.4161 20.6333 70.6027 20.14C70.8027 19.6467 70.9027 19.1 70.9027 18.5C70.9027 17.8867 70.8027 17.34 70.6027 16.86C70.4161 16.3667 70.1494 15.9467 69.8027 15.6C69.4694 15.24 69.0694 14.9667 68.6027 14.78C68.1494 14.5933 67.6561 14.5 67.1227 14.5C66.5894 14.5 66.0894 14.5933 65.6227 14.78C65.1694 14.9667 64.7694 15.24 64.4227 15.6C64.0894 15.9467 63.8227 16.3667 63.6227 16.86C63.4361 17.34 63.3427 17.8867 63.3427 18.5C63.3427 19.1 63.4361 19.6467 63.6227 20.14C63.8227 20.6333 64.0894 21.06 64.4227 21.42C64.7694 21.7667 65.1694 22.0333 65.6227 22.22C66.0894 22.4067 66.5894 22.5 67.1227 22.5ZM76.9768 25.5V11.5H80.2368L86.0368 21.02H84.3168L89.9568 11.5H93.2168L93.2568 25.5H89.6168L89.5768 17.04H90.1968L85.9768 24.12H84.2168L79.8768 17.04H80.6368V25.5H76.9768ZM96.0588 25.5V11.5H102.459C103.739 11.5 104.839 11.7067 105.759 12.12C106.692 12.5333 107.412 13.1333 107.919 13.92C108.425 14.6933 108.679 15.6133 108.679 16.68C108.679 17.7333 108.425 18.6467 107.919 19.42C107.412 20.1933 106.692 20.7933 105.759 21.22C104.839 21.6333 103.739 21.84 102.459 21.84H98.2588L100.019 20.12V25.5H96.0588ZM100.019 20.54L98.2588 18.72H102.219C103.045 18.72 103.659 18.54 104.059 18.18C104.472 17.82 104.679 17.32 104.679 16.68C104.679 16.0267 104.472 15.52 104.059 15.16C103.659 14.8 103.045 14.62 102.219 14.62H98.2588L100.019 12.8V20.54ZM108.226 25.5L114.406 11.5H118.306L124.506 25.5H120.386L115.546 13.44H117.106L112.266 25.5H108.226ZM111.606 22.78L112.626 19.86H119.466L120.486 22.78H111.606ZM125.629 25.5V11.5H128.889L136.609 20.82H135.069V11.5H138.949V25.5H135.689L127.969 16.18H129.509V25.5H125.629ZM145.282 25.5V19.58L146.202 21.96L139.942 11.5H144.122L148.642 19.08H146.222L150.762 11.5H154.602L148.362 21.96L149.242 19.58V25.5H145.282Z" fill="black"/>
</svg>
