<svg width="163" height="38" viewBox="0 0 163 38" fill="none" xmlns="http://www.w3.org/2000/svg">
<path fill-rule="evenodd" clip-rule="evenodd" d="M0.623141 1.24646C1.32787 0.280718 2.44671 0 3.56324 0C6.28155 0 7.65711 1.99638 8.33037 3.656C8.67471 4.50483 8.88958 5.37746 9.03861 6.09327C9.12312 6.49915 9.17828 6.80244 9.2226 7.04617C9.26828 7.29734 9.30246 7.48526 9.3454 7.65703L9.38408 7.81174L9.38836 7.97116C9.40009 8.40795 9.45134 9.04321 9.55323 9.53575C9.5702 9.6178 9.58735 9.68972 9.60409 9.75139C9.96276 10.0167 10.1953 10.4427 10.1953 10.9231C10.1953 11.7274 9.54327 12.3795 8.73892 12.3795C7.69439 12.3795 7.2072 11.5278 7.07416 11.2677C6.88447 10.8968 6.7727 10.4734 6.7008 10.1258C6.56497 9.4692 6.5025 8.72967 6.48158 8.19937C6.43534 7.98688 6.38283 7.70699 6.32926 7.42141C6.28144 7.16653 6.23277 6.90712 6.18695 6.68702C6.05255 6.04152 5.87987 5.364 5.63119 4.75098C5.11839 3.4869 4.48595 2.91282 3.56324 2.91282C3.20587 2.91282 3.03675 2.95777 2.96867 2.98584C2.94615 3.05352 2.89111 3.27709 2.92355 3.82858C2.95376 4.34223 3.03915 4.9247 3.14533 5.64892C3.18303 5.90611 3.22336 6.18118 3.26476 6.47739C3.41588 7.5585 3.56324 8.81987 3.56324 10.1949C3.56324 11.0591 3.50173 12.0948 3.43815 13.1653C3.40502 13.7231 3.37133 14.2904 3.34549 14.8477C3.26702 16.5405 3.2491 18.2834 3.46039 19.9315C3.87981 23.203 5.14548 25.8369 8.43019 27.0313L8.45638 27.0408L8.48218 27.0513C9.23416 27.3578 10.2067 27.3805 11.1037 27.3805C11.9081 27.3805 12.5601 28.0326 12.5601 28.8369C12.5601 29.6413 11.9081 30.2934 11.1037 30.2934L11.0589 30.2934C10.2393 30.2936 8.74071 30.2939 7.40979 29.7596C2.70339 28.0365 1.06118 24.1236 0.571211 20.3019C0.327369 18.3999 0.354969 16.4563 0.435792 14.7129C0.466417 14.0522 0.503289 13.4363 0.537764 12.8604C0.597715 11.8589 0.650417 10.9785 0.650417 10.1949C0.650417 9.02118 0.524697 7.91588 0.379986 6.88064C0.347655 6.64934 0.313206 6.41489 0.278766 6.18049C0.166381 5.41559 0.0540847 4.65131 0.0157507 3.99963C-0.0321974 3.18451 -0.00683989 2.10977 0.623141 1.24646ZM2.92995 3.00778C2.92906 3.00715 2.93437 3.00227 2.94852 2.99503C2.93791 3.00479 2.93084 3.00841 2.92995 3.00778Z" fill="#2E8B57"/>
<path fill-rule="evenodd" clip-rule="evenodd" d="M15.4403 5.69532C13.5334 6.88711 11.6748 9.21581 10.6377 10.9442C10.2239 11.634 9.32929 11.8576 8.63957 11.4438C7.94984 11.03 7.72618 10.1353 8.14002 9.44561C9.28758 7.53302 11.4341 4.76426 13.8965 3.22526C15.1357 2.45074 16.6224 1.88363 18.1862 2.0954C19.8156 2.31604 21.2002 3.3338 22.2752 5.05376L22.2822 5.06498L22.289 5.07633C23.1565 6.52204 22.9738 8.30453 22.5126 9.81291C22.0329 11.3816 21.1493 13.0042 20.1262 14.417C19.105 15.8272 17.8796 17.1186 16.6519 17.9766C16.0395 18.4046 15.3686 18.7657 14.6761 18.9508C13.9778 19.1374 13.1561 19.1684 12.3786 18.7796C11.611 18.3958 10.9766 17.8744 10.5792 17.1725C10.1746 16.4577 10.0982 15.7015 10.1946 15.0079C10.3722 13.73 11.167 12.4881 11.8422 11.5366C13.0399 9.84875 14.4973 8.12419 14.9129 7.70863C15.4817 7.13987 16.4038 7.13987 16.9726 7.70863C17.5413 8.2774 17.5413 9.19954 16.9726 9.76831C16.7151 10.0258 15.3635 11.6076 14.2177 13.2224C13.5289 14.193 13.1487 14.9122 13.0797 15.4088C13.0528 15.6024 13.0853 15.6867 13.1141 15.7375C13.1498 15.8007 13.2717 15.9677 13.6711 16.1692C13.6939 16.173 13.7692 16.1781 13.924 16.1368C14.1786 16.0687 14.5375 15.9007 14.9832 15.5891C15.8719 14.968 16.8766 13.9382 17.767 12.7086C18.6554 11.4817 19.3648 10.146 19.7271 8.96114C20.1047 7.72613 20.0177 6.96228 19.7968 6.5842C19.0543 5.40209 18.3485 5.05678 17.7954 4.98188C17.1747 4.89782 16.3857 5.10443 15.4403 5.69532ZM13.6632 16.1673C13.6633 16.1672 13.6651 16.1675 13.6683 16.1687C13.6648 16.168 13.6632 16.1674 13.6632 16.1673Z" fill="#2E8B57"/>
<path fill-rule="evenodd" clip-rule="evenodd" d="M26.0486 8.23584C25.8464 7.65518 25.4027 6.88703 24.6413 6.33766C23.7872 5.72137 22.632 5.45901 21.3078 5.9004C20.5448 6.15476 20.1324 6.97955 20.3867 7.74263C20.6411 8.50571 21.4659 8.9181 22.229 8.66374C22.4686 8.58385 22.619 8.58751 22.7026 8.60052C22.7874 8.61374 22.8622 8.64587 22.937 8.69982C23.1159 8.82887 23.2519 9.05604 23.2996 9.19904L23.3131 9.23964L23.329 9.27938C23.5116 9.736 23.5231 10.5317 23.1749 11.6685C22.8394 12.7639 22.2289 13.9785 21.4668 15.1216C20.7053 16.2639 19.8329 17.274 19.0172 17.9802C18.6095 18.3332 18.2429 18.5869 17.9365 18.7461C17.618 18.9116 17.445 18.9334 17.399 18.9334C17.2474 18.9334 17.1807 18.9072 17.164 18.8992C17.1595 18.8926 17.1518 18.8791 17.142 18.8543C17.072 18.6766 17.0087 18.1585 17.3251 17.2092C17.5794 16.4461 17.1669 15.6214 16.4039 15.367C15.6408 15.1127 14.816 15.5252 14.5617 16.2883C14.15 17.5236 13.9998 18.826 14.4322 19.9227C14.6596 20.4993 15.0467 21.0068 15.603 21.3588C16.151 21.7056 16.7749 21.8462 17.399 21.8462C18.0812 21.8462 18.7275 21.6176 19.2795 21.3308C19.8435 21.0378 20.3986 20.6372 20.9239 20.1823C21.9743 19.2728 23.0135 18.0528 23.8904 16.7374C24.7668 15.4228 25.5218 13.9521 25.96 12.5216C26.3815 11.1454 26.5754 9.5908 26.0486 8.23584ZM17.1605 18.8974C17.1606 18.8974 17.1606 18.8974 17.1606 18.8974L17.1605 18.8974ZM17.1651 18.9007C17.1675 18.9027 17.1686 18.9042 17.1685 18.9044C17.1685 18.9046 17.1673 18.9036 17.1651 18.9007Z" fill="#2E8B57"/>
<path fill-rule="evenodd" clip-rule="evenodd" d="M37.3352 8.74982C37.0053 8.7894 36.7917 8.91419 36.7124 8.99356C36.015 9.69091 34.5581 10.7392 33.1535 11.6973C31.7019 12.6877 30.1559 13.6815 29.1724 14.2962C28.4903 14.7225 27.5917 14.5151 27.1654 13.8331C26.7391 13.151 26.9465 12.2524 27.6286 11.8261C28.5869 11.2271 30.0994 10.2548 31.512 9.29112C32.9717 8.29529 34.1849 7.40165 34.6527 6.93388C35.3015 6.28504 36.1802 5.9547 36.9882 5.85774C37.7986 5.76049 38.7328 5.8744 39.5267 6.35075C40.3829 6.8645 40.9888 7.7588 41.0294 8.93757C41.067 10.0264 40.6189 11.195 39.8071 12.4126C36.7237 17.0378 32.1374 20.1031 30.5082 20.9177C30.0957 21.1239 29.5364 21.6192 28.6446 22.7787C27.7717 23.9134 26.7114 25.5024 25.243 27.7049C23.5909 30.1831 20.9171 32.061 18.1756 32.7071C15.387 33.3644 12.3214 32.7583 10.4399 29.9361C9.99374 29.2668 10.1746 28.3626 10.8439 27.9164C11.5131 27.4702 12.4174 27.6511 12.8635 28.3204C13.8949 29.8674 15.5626 30.3304 17.5074 29.872C19.4992 29.4026 21.5587 27.9803 22.8194 26.0892L22.8521 26.0402C24.2808 23.897 25.3954 22.2252 26.3358 21.0027C27.2645 19.7954 28.1616 18.8343 29.2055 18.3124C30.4892 17.6705 34.6413 14.9102 37.3835 10.7969C38.0282 9.82986 38.1263 9.26901 38.1183 9.03795C38.1135 8.89967 38.0833 8.88158 38.0313 8.85041L38.0281 8.84848C37.9117 8.77868 37.6626 8.71053 37.3352 8.74982Z" fill="#2E8B57"/>
<path fill-rule="evenodd" clip-rule="evenodd" d="M3.56326 24.0308C4.36761 24.0308 5.01967 24.6828 5.01967 25.4872C5.01967 26.355 4.68731 27.4224 4.38406 28.2472C4.05913 29.131 3.67241 29.982 3.4095 30.5078C3.04978 31.2272 2.17496 31.5188 1.45552 31.1591C0.736083 30.7994 0.444474 29.9245 0.804192 29.2051C1.02676 28.76 1.36824 28.0089 1.65015 27.2421C1.95374 26.4163 2.10685 25.7845 2.10685 25.4872C2.10685 24.6828 2.7589 24.0308 3.56326 24.0308Z" fill="#2E8B57"/>
<path fill-rule="evenodd" clip-rule="evenodd" d="M16.5954 31.3897C16.9551 32.1092 16.6635 32.984 15.9441 33.3437C14.6942 33.9687 12.835 35.5263 11.9826 36.5919C11.4801 37.22 10.5636 37.3218 9.93549 36.8194C9.3074 36.3169 9.20556 35.4004 9.70804 34.7723C10.7975 33.4105 12.9786 31.5698 14.6414 30.7384C15.3609 30.3787 16.2357 30.6703 16.5954 31.3897Z" fill="#2E8B57"/>
<path fill-rule="evenodd" clip-rule="evenodd" d="M24.0086 9.79477C24.2296 9.02137 25.0357 8.57353 25.8091 8.79451C26.9982 9.13423 28.5192 10.1083 29.1098 11.977C29.7037 13.8563 29.2201 16.2064 27.349 19.013C26.2013 20.7347 25.0974 21.9628 24.0441 22.773C22.9942 23.5806 21.9157 24.0308 20.8577 24.0308C18.5417 24.0308 17.3987 22.0265 17.3987 20.3898C17.3987 19.5854 18.0508 18.9334 18.8552 18.9334C19.6595 18.9334 20.3116 19.5854 20.3116 20.3898C20.3116 20.9376 20.6251 21.118 20.8577 21.118C21.0741 21.118 21.543 21.022 22.2681 20.4642C22.9899 19.909 23.8886 18.9525 24.9254 17.3973C26.5497 14.9608 26.5516 13.5485 26.3323 12.8548C26.1098 12.1505 25.519 11.741 25.0089 11.5953C24.2355 11.3743 23.7877 10.5682 24.0086 9.79477Z" fill="#2E8B57"/>
<path d="M59.4116 25.8493C58.3049 25.8493 57.2783 25.6759 56.3316 25.3293C55.3983 24.9693 54.5849 24.4626 53.8916 23.8093C53.2116 23.1559 52.6783 22.3893 52.2916 21.5093C51.9049 20.6159 51.7116 19.6359 51.7116 18.5693C51.7116 17.5026 51.9049 16.5293 52.2916 15.6493C52.6783 14.7559 53.2116 13.9826 53.8916 13.3293C54.5849 12.6759 55.3983 12.1759 56.3316 11.8293C57.2783 11.4693 58.3049 11.2893 59.4116 11.2893C60.7049 11.2893 61.8583 11.5159 62.8716 11.9693C63.8983 12.4226 64.7516 13.0759 65.4316 13.9293L62.9116 16.2093C62.4583 15.6759 61.9583 15.2693 61.4116 14.9893C60.8783 14.7093 60.2783 14.5693 59.6116 14.5693C59.0383 14.5693 58.5116 14.6626 58.0316 14.8493C57.5516 15.0359 57.1383 15.3093 56.7916 15.6693C56.4583 16.0159 56.1916 16.4359 55.9916 16.9293C55.8049 17.4226 55.7116 17.9693 55.7116 18.5693C55.7116 19.1693 55.8049 19.7159 55.9916 20.2093C56.1916 20.7026 56.4583 21.1293 56.7916 21.4893C57.1383 21.8359 57.5516 22.1026 58.0316 22.2893C58.5116 22.4759 59.0383 22.5693 59.6116 22.5693C60.2783 22.5693 60.8783 22.4293 61.4116 22.1493C61.9583 21.8693 62.4583 21.4626 62.9116 20.9293L65.4316 23.2093C64.7516 24.0493 63.8983 24.7026 62.8716 25.1693C61.8583 25.6226 60.7049 25.8493 59.4116 25.8493ZM73.9642 25.8493C72.8442 25.8493 71.8109 25.6693 70.8642 25.3093C69.9176 24.9493 69.0909 24.4426 68.3842 23.7893C67.6909 23.1226 67.1509 22.3493 66.7642 21.4693C66.3776 20.5893 66.1842 19.6226 66.1842 18.5693C66.1842 17.5159 66.3776 16.5493 66.7642 15.6693C67.1509 14.7893 67.6909 14.0226 68.3842 13.3693C69.0909 12.7026 69.9176 12.1893 70.8642 11.8293C71.8109 11.4693 72.8442 11.2893 73.9642 11.2893C75.0976 11.2893 76.1309 11.4693 77.0642 11.8293C78.0109 12.1893 78.8309 12.7026 79.5242 13.3693C80.2176 14.0226 80.7576 14.7893 81.1442 15.6693C81.5442 16.5493 81.7442 17.5159 81.7442 18.5693C81.7442 19.6226 81.5442 20.5959 81.1442 21.4893C80.7576 22.3693 80.2176 23.1359 79.5242 23.7893C78.8309 24.4426 78.0109 24.9493 77.0642 25.3093C76.1309 25.6693 75.0976 25.8493 73.9642 25.8493ZM73.9642 22.5693C74.4976 22.5693 74.9909 22.4759 75.4442 22.2893C75.9109 22.1026 76.3109 21.8359 76.6442 21.4893C76.9909 21.1293 77.2576 20.7026 77.4442 20.2093C77.6442 19.7159 77.7442 19.1693 77.7442 18.5693C77.7442 17.9559 77.6442 17.4093 77.4442 16.9293C77.2576 16.4359 76.9909 16.0159 76.6442 15.6693C76.3109 15.3093 75.9109 15.0359 75.4442 14.8493C74.9909 14.6626 74.4976 14.5693 73.9642 14.5693C73.4309 14.5693 72.9309 14.6626 72.4642 14.8493C72.0109 15.0359 71.6109 15.3093 71.2642 15.6693C70.9309 16.0159 70.6642 16.4359 70.4642 16.9293C70.2776 17.4093 70.1842 17.9559 70.1842 18.5693C70.1842 19.1693 70.2776 19.7159 70.4642 20.2093C70.6642 20.7026 70.9309 21.1293 71.2642 21.4893C71.6109 21.8359 72.0109 22.1026 72.4642 22.2893C72.9309 22.4759 73.4309 22.5693 73.9642 22.5693ZM83.8183 25.5693V11.5693H87.0783L92.8783 21.0893H91.1583L96.7983 11.5693H100.058L100.098 25.5693H96.4583L96.4183 17.1093H97.0383L92.8183 24.1893H91.0583L86.7183 17.1093H87.4783V25.5693H83.8183ZM102.9 25.5693V11.5693H109.3C110.58 11.5693 111.68 11.7759 112.6 12.1893C113.534 12.6026 114.254 13.2026 114.76 13.9893C115.267 14.7626 115.52 15.6826 115.52 16.7493C115.52 17.8026 115.267 18.7159 114.76 19.4893C114.254 20.2626 113.534 20.8626 112.6 21.2893C111.68 21.7026 110.58 21.9093 109.3 21.9093H105.1L106.86 20.1893V25.5693H102.9ZM106.86 20.6093L105.1 18.7893H109.06C109.887 18.7893 110.5 18.6093 110.9 18.2493C111.314 17.8893 111.52 17.3893 111.52 16.7493C111.52 16.0959 111.314 15.5893 110.9 15.2293C110.5 14.8693 109.887 14.6893 109.06 14.6893H105.1L106.86 12.8693V20.6093ZM115.068 25.5693L121.248 11.5693H125.148L131.348 25.5693H127.228L122.388 13.5093H123.948L119.108 25.5693H115.068ZM118.448 22.8493L119.468 19.9293H126.308L127.328 22.8493H118.448ZM132.471 25.5693V11.5693H135.731L143.451 20.8893H141.911V11.5693H145.791V25.5693H142.531L134.811 16.2493H136.351V25.5693H132.471ZM152.124 25.5693V19.6493L153.044 22.0293L146.784 11.5693H150.964L155.484 19.1493H153.064L157.604 11.5693H161.444L155.204 22.0293L156.084 19.6493V25.5693H152.124Z" fill="black"/>
</svg>
