<svg width="160" height="37" viewBox="0 0 160 37" fill="none" xmlns="http://www.w3.org/2000/svg">
<path d="M3.03174 7.1373C2.02614 8.32685 1.24129 9.71261 0.763013 11.2333C3.48549 10.6201 7.10319 10.4729 9.15118 10.3135C9.78888 7.68915 11.6039 5.69022 14.6452 5.82512C15.9574 5.88643 17.1101 6.73261 17.9073 8.03253C18.4959 7.40709 19.2808 6.99014 20.3231 6.84298C20.3967 6.84298 20.5561 6.83071 20.6788 6.83071C18.5204 4.47614 15.4423 2.98001 11.9963 2.98001C11.3709 2.98001 10.7577 3.04132 10.1445 3.13943C10.0219 3.13943 9.86246 3.16396 9.65398 3.21301C9.64172 3.21301 9.61719 3.21301 9.60493 3.21301C9.59266 3.21301 9.5804 3.21301 9.55587 3.21301C7.17677 3.78939 5.38632 3.32338 4.36845 1.93762C4.25808 1.79046 3.82886 1.1405 3.69397 0C2.9459 0.772594 2.45536 2.04799 2.87232 3.40923C3.20343 4.4884 3.82886 5.06478 4.50335 5.3959C3.47323 5.45721 2.61479 5.261 1.75635 4.61104C1.25355 4.23087 0.934701 3.81392 0.407375 2.72248C-0.0831615 3.49507 -0.0341079 4.35351 0.0639993 4.79499C0.186633 5.38363 0.493218 6.04586 0.885647 6.42602C1.48655 7.01466 2.34499 7.14956 3.04401 7.1373H3.03174Z" fill="#8B0000"/>
<path d="M14.6572 17.2793C16.1811 17.2793 17.4164 15.1655 17.4164 12.5579C17.4164 9.95036 16.1811 7.83651 14.6572 7.83651C13.1333 7.83651 11.8979 9.95036 11.8979 12.5579C11.8979 15.1655 13.1333 17.2793 14.6572 17.2793Z" fill="#8B0000"/>
<path d="M20.7276 16.1389C21.9196 16.1389 22.8859 14.4588 22.8859 12.3863C22.8859 10.3138 21.9196 8.63371 20.7276 8.63371C19.5355 8.63371 18.5692 10.3138 18.5692 12.3863C18.5692 14.4588 19.5355 16.1389 20.7276 16.1389Z" fill="#8B0000"/>
<path fill-rule="evenodd" clip-rule="evenodd" d="M10.0409 37C10.0533 36.4509 10.258 34.7216 12.0086 31.2596C12.7812 29.7512 14.5349 27.6664 15.8471 26.5382C16.5461 25.925 17.2451 25.41 17.9318 24.9317C18.2875 24.7232 18.6186 24.5025 18.9374 24.2695C24.6816 20.7477 29.7523 21.4831 33.959 22.0932L34.0827 22.1111C34.0827 22.1111 35.0883 19.1189 30.9433 17.5737C28.6868 16.7398 26.0257 16.0653 23.806 15.5993C23.4872 16.1756 23.0825 16.6662 22.6042 17.0341C22.5977 17.039 22.5909 17.0441 22.584 17.0492C22.2283 17.3166 21.3849 17.9503 19.8572 17.7699C19.0723 17.6718 18.4714 17.3529 17.9932 16.8869C17.1838 18.2236 16.0188 19.0943 14.6698 19.217C10.9294 19.5358 9.04088 16.3964 8.91824 12.9258C6.10992 13.1956 2.28374 14.9248 0.248017 15.9304L0.258545 33.9668C2.856 34.9735 6.7526 36.2157 10.0409 37Z" fill="#8B0000"/>
<path d="M45.5901 25.5V11.5H48.8501L54.6501 21.02H52.9301L58.5701 11.5H61.8301L61.8701 25.5H58.2301L58.1901 17.04H58.8101L54.5901 24.12H52.8301L48.4901 17.04H49.2501V25.5H45.5901ZM69.9321 25.68C68.7454 25.68 67.6921 25.44 66.7721 24.96C65.8521 24.48 65.1254 23.82 64.5921 22.98C64.0721 22.1267 63.8121 21.1533 63.8121 20.06C63.8121 18.9667 64.0721 18 64.5921 17.16C65.1254 16.32 65.8521 15.6667 66.7721 15.2C67.6921 14.72 68.7454 14.48 69.9321 14.48C71.1188 14.48 72.1721 14.72 73.0921 15.2C74.0254 15.6667 74.7521 16.32 75.2721 17.16C75.7921 18 76.0521 18.9667 76.0521 20.06C76.0521 21.1533 75.7921 22.1267 75.2721 22.98C74.7521 23.82 74.0254 24.48 73.0921 24.96C72.1721 25.44 71.1188 25.68 69.9321 25.68ZM69.9321 22.66C70.3721 22.66 70.7588 22.56 71.0921 22.36C71.4388 22.16 71.7121 21.8667 71.9121 21.48C72.1121 21.08 72.2121 20.6067 72.2121 20.06C72.2121 19.5133 72.1121 19.0533 71.9121 18.68C71.7121 18.2933 71.4388 18 71.0921 17.8C70.7588 17.6 70.3721 17.5 69.9321 17.5C69.5054 17.5 69.1188 17.6 68.7721 17.8C68.4388 18 68.1654 18.2933 67.9521 18.68C67.7521 19.0533 67.6521 19.5133 67.6521 20.06C67.6521 20.6067 67.7521 21.08 67.9521 21.48C68.1654 21.8667 68.4388 22.16 68.7721 22.36C69.1188 22.56 69.5054 22.66 69.9321 22.66ZM82.5324 25.68C81.5457 25.68 80.6457 25.4533 79.8324 25C79.0324 24.5333 78.3924 23.8867 77.9124 23.06C77.4324 22.22 77.1924 21.22 77.1924 20.06C77.1924 18.9133 77.4324 17.9267 77.9124 17.1C78.3924 16.26 79.0324 15.6133 79.8324 15.16C80.6457 14.7067 81.5457 14.48 82.5324 14.48C83.4657 14.48 84.2524 14.68 84.8924 15.08C85.5457 15.48 86.0391 16.0933 86.3724 16.92C86.7057 17.7467 86.8724 18.7933 86.8724 20.06C86.8724 21.3533 86.7124 22.4133 86.3924 23.24C86.0724 24.0667 85.5924 24.68 84.9524 25.08C84.3124 25.48 83.5057 25.68 82.5324 25.68ZM83.3324 22.66C83.7591 22.66 84.1391 22.56 84.4724 22.36C84.8191 22.16 85.0924 21.8667 85.2924 21.48C85.4924 21.08 85.5924 20.6067 85.5924 20.06C85.5924 19.5133 85.4924 19.0533 85.2924 18.68C85.0924 18.2933 84.8191 18 84.4724 17.8C84.1391 17.6 83.7591 17.5 83.3324 17.5C82.8924 17.5 82.4991 17.6 82.1524 17.8C81.8191 18 81.5524 18.2933 81.3524 18.68C81.1524 19.0533 81.0524 19.5133 81.0524 20.06C81.0524 20.6067 81.1524 21.08 81.3524 21.48C81.5524 21.8667 81.8191 22.16 82.1524 22.36C82.4991 22.56 82.8924 22.66 83.3324 22.66ZM85.7124 25.5V23.64L85.7324 20.06L85.5324 16.48V10.66H89.3324V25.5H85.7124ZM96.3373 25.68C95.4573 25.68 94.6639 25.5067 93.9573 25.16C93.2639 24.8133 92.7173 24.2733 92.3173 23.54C91.9306 22.7933 91.7373 21.8533 91.7373 20.72V14.66H95.5373V20.1C95.5373 20.94 95.6906 21.54 95.9973 21.9C96.3173 22.26 96.7639 22.44 97.3373 22.44C97.7106 22.44 98.0506 22.3533 98.3573 22.18C98.6639 22.0067 98.9106 21.7333 99.0973 21.36C99.2839 20.9733 99.3773 20.48 99.3773 19.88V14.66H103.177V25.5H99.5573V22.44L100.257 23.3C99.8839 24.1 99.3439 24.7 98.6373 25.1C97.9306 25.4867 97.1639 25.68 96.3373 25.68ZM105.625 25.5V10.66H109.425V25.5H105.625ZM118.514 25.5V23.48L118.254 22.98V19.26C118.254 18.66 118.068 18.2 117.694 17.88C117.334 17.5467 116.754 17.38 115.954 17.38C115.434 17.38 114.908 17.4667 114.374 17.64C113.841 17.8 113.388 18.0267 113.014 18.32L111.734 15.74C112.348 15.34 113.081 15.0333 113.934 14.82C114.801 14.5933 115.661 14.48 116.514 14.48C118.274 14.48 119.634 14.8867 120.594 15.7C121.568 16.5 122.054 17.76 122.054 19.48V25.5H118.514ZM115.314 25.68C114.448 25.68 113.714 25.5333 113.114 25.24C112.514 24.9467 112.054 24.5467 111.734 24.04C111.428 23.5333 111.274 22.9667 111.274 22.34C111.274 21.6733 111.441 21.1 111.774 20.62C112.121 20.1267 112.648 19.7533 113.354 19.5C114.061 19.2333 114.974 19.1 116.094 19.1H118.654V21.08H116.614C116.001 21.08 115.568 21.18 115.314 21.38C115.074 21.58 114.954 21.8467 114.954 22.18C114.954 22.5133 115.081 22.78 115.334 22.98C115.588 23.18 115.934 23.28 116.374 23.28C116.788 23.28 117.161 23.18 117.494 22.98C117.841 22.7667 118.094 22.4467 118.254 22.02L118.774 23.42C118.574 24.1667 118.181 24.7333 117.594 25.12C117.021 25.4933 116.261 25.68 115.314 25.68ZM124.453 25.5V14.66H128.073V17.82L127.533 16.92C127.853 16.1067 128.373 15.5 129.093 15.1C129.813 14.6867 130.686 14.48 131.713 14.48V17.9C131.54 17.8733 131.386 17.86 131.253 17.86C131.133 17.8467 131 17.84 130.853 17.84C130.08 17.84 129.453 18.0533 128.973 18.48C128.493 18.8933 128.253 19.5733 128.253 20.52V25.5H124.453ZM133.442 25.5V11.5H137.402V22.36H144.082V25.5H133.442ZM145.649 25.5V11.5H152.049C153.329 11.5 154.429 11.7067 155.349 12.12C156.282 12.5333 157.002 13.1333 157.509 13.92C158.015 14.6933 158.269 15.6133 158.269 16.68C158.269 17.7333 158.015 18.6467 157.509 19.42C157.002 20.1933 156.282 20.7933 155.349 21.22C154.429 21.6333 153.329 21.84 152.049 21.84H147.849L149.609 20.12V25.5H145.649ZM149.609 20.54L147.849 18.72H151.809C152.635 18.72 153.249 18.54 153.649 18.18C154.062 17.82 154.269 17.32 154.269 16.68C154.269 16.0267 154.062 15.52 153.649 15.16C153.249 14.8 152.635 14.62 151.809 14.62H147.849L149.609 12.8V20.54Z" fill="black"/>
</svg>
